<svg width="18" height="18" viewBox="0 0 18 18" fill="none" xmlns="http://www.w3.org/2000/svg">
<path d="M14.9698 6.7198C14.4673 6.1648 13.7098 5.8423 12.6598 5.7298V5.1598C12.6598 4.1323 12.2248 3.1423 11.4598 2.4523C10.6873 1.7473 9.68231 1.4173 8.63981 1.5148C6.84731 1.6873 5.33981 3.4198 5.33981 5.2948V5.7298C4.28981 5.8423 3.53231 6.1648 3.02981 6.7198C2.30231 7.5298 2.32481 8.6098 2.40731 9.3598L2.93231 13.5373C3.08981 14.9998 3.68231 16.4998 6.90731 16.4998H11.0923C14.3173 16.4998 14.9098 14.9998 15.0673 13.5448L15.5923 9.3523C15.6748 8.6098 15.6973 7.5298 14.9698 6.7198ZM8.74481 2.5573C9.49481 2.4898 10.2073 2.7223 10.7623 3.2248C11.3098 3.7198 11.6173 4.4248 11.6173 5.1598V5.6848H6.38231V5.2948C6.38231 3.9598 7.48481 2.6773 8.74481 2.5573ZM8.99981 13.9348C7.43231 13.9348 6.15731 12.6598 6.15731 11.0923C6.15731 9.5248 7.43231 8.2498 8.99981 8.2498C10.5673 8.2498 11.8423 9.5248 11.8423 11.0923C11.8423 12.6598 10.5673 13.9348 8.99981 13.9348Z" fill="white"/>
<path d="M8.57266 12.48C8.43016 12.48 8.28766 12.4275 8.17516 12.315L7.43266 11.5725C7.21516 11.355 7.21516 10.995 7.43266 10.7775C7.65016 10.56 8.01016 10.56 8.22766 10.7775L8.58766 11.1375L9.78766 10.0275C10.0127 9.81747 10.3727 9.83247 10.5827 10.0575C10.7927 10.2825 10.7777 10.6425 10.5527 10.8525L8.95516 12.33C8.84266 12.4275 8.70766 12.48 8.57266 12.48Z" fill="white"/>
</svg>
