<svg width="20" height="20" viewBox="0 0 20 20" fill="none" xmlns="http://www.w3.org/2000/svg">
<g id="vuesax/linear/bank">
<g id="vuesax/linear/bank_2">
<g id="bank">
<path id="Vector" d="M10.3082 1.79173L17.8082 4.79171C18.0998 4.90838 18.3332 5.25837 18.3332 5.5667V8.33338C18.3332 8.79171 17.9582 9.16671 17.4998 9.16671H2.49984C2.0415 9.16671 1.6665 8.79171 1.6665 8.33338V5.5667C1.6665 5.25837 1.89984 4.90838 2.19151 4.79171L9.69151 1.79173C9.85818 1.72506 10.1415 1.72506 10.3082 1.79173Z" stroke="#888AA0" stroke-width="1.5" stroke-miterlimit="10" stroke-linecap="round" stroke-linejoin="round"/>
<path id="Vector_2" d="M18.3332 18.3333H1.6665V15.8333C1.6665 15.375 2.0415 15 2.49984 15H17.4998C17.9582 15 18.3332 15.375 18.3332 15.8333V18.3333Z" stroke="#888AA0" stroke-width="1.5" stroke-miterlimit="10" stroke-linecap="round" stroke-linejoin="round"/>
<path id="Vector_3" d="M3.3335 15V9.16666" stroke="#888AA0" stroke-width="1.5" stroke-miterlimit="10" stroke-linecap="round" stroke-linejoin="round"/>
<path id="Vector_4" d="M6.6665 15V9.16666" stroke="#888AA0" stroke-width="1.5" stroke-miterlimit="10" stroke-linecap="round" stroke-linejoin="round"/>
<path id="Vector_5" d="M10 15V9.16666" stroke="#888AA0" stroke-width="1.5" stroke-miterlimit="10" stroke-linecap="round" stroke-linejoin="round"/>
<path id="Vector_6" d="M13.3335 15V9.16666" stroke="#888AA0" stroke-width="1.5" stroke-miterlimit="10" stroke-linecap="round" stroke-linejoin="round"/>
<path id="Vector_7" d="M16.6665 15V9.16666" stroke="#888AA0" stroke-width="1.5" stroke-miterlimit="10" stroke-linecap="round" stroke-linejoin="round"/>
<path id="Vector_8" d="M0.833496 18.3333H19.1668" stroke="#888AA0" stroke-width="1.5" stroke-miterlimit="10" stroke-linecap="round" stroke-linejoin="round"/>
<path id="Vector_9" d="M10 7.08334C10.6904 7.08334 11.25 6.5237 11.25 5.83334C11.25 5.14299 10.6904 4.58334 10 4.58334C9.30964 4.58334 8.75 5.14299 8.75 5.83334C8.75 6.5237 9.30964 7.08334 10 7.08334Z" stroke="#888AA0" stroke-width="1.5" stroke-miterlimit="10" stroke-linecap="round" stroke-linejoin="round"/>
</g>
</g>
</g>
</svg>
