<svg width="24" height="24" viewBox="0 0 24 24" fill="none" xmlns="http://www.w3.org/2000/svg">
<path opacity="0.4" d="M19 14C20.6569 14 22 15.3431 22 17C22 18.66 20.66 20 19 20C18.4477 20 18.0201 19.5254 17.7538 19.0416C17.4129 18.4221 16.7534 18 16 18C15.6036 18 15.2332 18.1169 14.9216 18.3178C13.9932 18.9164 13.1046 20 12 20C10.8954 20 10.0068 18.9164 9.07843 18.3178C8.76675 18.1169 8.39636 18 8 18C7.24664 18 6.58709 18.4221 6.24622 19.0416C5.97995 19.5254 5.55228 20 5 20C3.34 20 2 18.66 2 17C2 15.3431 3.34315 14 5 14H13C14.1 14 15 13.1 15 12V6.84003C15 5.82381 15.8238 5 16.84 5C17.56 5 18.22 5.39001 18.58 6.01001L19.6496 7.88021C19.9349 8.37907 19.5747 9 19 9C18.45 9 18 9.45 18 10V13C18 13.55 18.45 14 19 14Z" fill="url(#paint0_linear_13_6057)"/>
<path d="M8 22C9.10457 22 10 21.1046 10 20C10 18.8954 9.10457 18 8 18C6.89543 18 6 18.8954 6 20C6 21.1046 6.89543 22 8 22Z" fill="url(#paint1_linear_13_6057)"/>
<path d="M16 22C17.1046 22 18 21.1046 18 20C18 18.8954 17.1046 18 16 18C14.8954 18 14 18.8954 14 20C14 21.1046 14.8954 22 16 22Z" fill="url(#paint2_linear_13_6057)"/>
<path d="M22 12.53C22 13.3419 21.3419 14 20.53 14H19C18.45 14 18 13.55 18 13V10C18 9.45 18.45 9 19 9C19.7976 9 20.5341 9.42757 20.9295 10.1203L21.74 11.54C21.91 11.84 22 12.18 22 12.53Z" fill="url(#paint3_linear_13_6057)"/>
<path d="M14 2H6C5.79614 2 5.59589 2.0153 5.40033 2.04482C2.87381 2.42612 4.44487 5.25 7 5.25C7.41 5.25 7.75 5.59 7.75 6C7.75 6.41 7.41 6.75 7 6.75H2.75C2.33579 6.75 2 7.08579 2 7.5C2 7.91421 2.33579 8.25 2.75 8.25H5C5.41 8.25 5.75 8.59 5.75 9C5.75 9.41 5.41 9.75 5 9.75H2.75C2.33579 9.75 2 10.0858 2 10.5C2 10.9142 2.33579 11.25 2.75 11.25H3C3.41 11.25 3.75 11.59 3.75 12C3.75 12.41 3.41 12.75 3 12.75H2.625C2.27982 12.75 2 13.0298 2 13.375C2 13.7202 2.27982 14 2.625 14H13C14.1 14 15 13.1 15 12V3C15 2.45 14.55 2 14 2Z" fill="url(#paint4_linear_13_6057)"/>
<path d="M2 6C2 5.61028 1.71415 5.25 1.32443 5.25H1C0.59 5.25 0.25 5.59 0.25 6C0.25 6.41 0.59 6.75 1 6.75H1.25C1.66421 6.75 2 6.41421 2 6Z" fill="url(#paint5_linear_13_6057)"/>
<path d="M1 8.25C0.59 8.25 0.25 8.59 0.25 9C0.25 9.41 0.59 9.75 1 9.75H1.25C1.66421 9.75 2 9.41421 2 9C2 8.58579 1.66421 8.25 1.25 8.25H1Z" fill="url(#paint6_linear_13_6057)"/>
<path d="M1 11.25C0.59 11.25 0.25 11.59 0.25 12C0.25 12.41 0.59 12.75 1 12.75H1.25C1.66421 12.75 2 12.4142 2 12C2 11.5858 1.66421 11.25 1.25 11.25H1Z" fill="url(#paint7_linear_13_6057)"/>
<defs>
<linearGradient id="paint0_linear_13_6057" x1="0.963415" y1="-2.98387" x2="38.757" y2="9.62363" gradientUnits="userSpaceOnUse">
<stop stop-color="#F57C1E"/>
<stop offset="1" stop-color="#F57C1E" stop-opacity="0"/>
</linearGradient>
<linearGradient id="paint1_linear_13_6057" x1="5.79268" y1="15.871" x2="13.6977" y2="17.8487" gradientUnits="userSpaceOnUse">
<stop stop-color="#F57C1E"/>
<stop offset="1" stop-color="#F57C1E" stop-opacity="0"/>
</linearGradient>
<linearGradient id="paint2_linear_13_6057" x1="13.7927" y1="15.871" x2="21.6977" y2="17.8487" gradientUnits="userSpaceOnUse">
<stop stop-color="#F57C1E"/>
<stop offset="1" stop-color="#F57C1E" stop-opacity="0"/>
</linearGradient>
<linearGradient id="paint3_linear_13_6057" x1="17.7927" y1="6.33871" x2="25.869" y2="7.95521" gradientUnits="userSpaceOnUse">
<stop stop-color="#F57C1E"/>
<stop offset="1" stop-color="#F57C1E" stop-opacity="0"/>
</linearGradient>
<linearGradient id="paint4_linear_13_6057" x1="1.32622" y1="-4.3871" x2="26.7575" y2="2.50581" gradientUnits="userSpaceOnUse">
<stop stop-color="#F57C1E"/>
<stop offset="1" stop-color="#F57C1E" stop-opacity="0"/>
</linearGradient>
<linearGradient id="paint5_linear_13_6057" x1="0.155152" y1="4.45161" x2="3.6706" y2="5.52465" gradientUnits="userSpaceOnUse">
<stop stop-color="#F57C1E"/>
<stop offset="1" stop-color="#F57C1E" stop-opacity="0"/>
</linearGradient>
<linearGradient id="paint6_linear_13_6057" x1="0.159299" y1="7.45161" x2="3.54572" y2="8.44007" gradientUnits="userSpaceOnUse">
<stop stop-color="#F57C1E"/>
<stop offset="1" stop-color="#F57C1E" stop-opacity="0"/>
</linearGradient>
<linearGradient id="paint7_linear_13_6057" x1="0.159299" y1="10.4516" x2="3.54572" y2="11.4401" gradientUnits="userSpaceOnUse">
<stop stop-color="#F57C1E"/>
<stop offset="1" stop-color="#F57C1E" stop-opacity="0"/>
</linearGradient>
</defs>
</svg>
