<svg width="18" height="20" viewBox="0 0 18 20" fill="none" xmlns="http://www.w3.org/2000/svg">
<g id="Home">
<path id="Home_2" d="M6.63166 17.3096V14.754C6.63165 14.1039 7.16158 13.5758 7.81816 13.5714H10.2232C10.8829 13.5714 11.4177 14.1009 11.4177 14.754V14.754V17.3175C11.4176 17.8694 11.8625 18.3205 12.4198 18.3334H14.0232C15.6216 18.3334 16.9173 17.0506 16.9173 15.4683V15.4683V8.19828C16.9088 7.57577 16.6135 6.99121 16.1156 6.61094L10.6321 2.23783C9.67143 1.47639 8.30582 1.47639 7.34517 2.23783L1.88567 6.61888C1.38587 6.9976 1.09014 7.58314 1.08398 8.20621V15.4683C1.08398 17.0506 2.37971 18.3334 3.97808 18.3334H5.58145C6.15261 18.3334 6.61563 17.875 6.61563 17.3096V17.3096" stroke="#888AA0" stroke-width="1.5" stroke-linecap="round" stroke-linejoin="round"/>
</g>
</svg>
