<svg width="32" height="32" viewBox="0 0 32 32" fill="none" xmlns="http://www.w3.org/2000/svg">
<g id="vuesax/linear/routing">
<g id="vuesax/linear/routing_2">
<g id="routing">
<path id="Vector" d="M2.75942 6.13334C3.82609 1.52001 10.7728 1.52001 11.8261 6.13334C12.4528 8.84001 10.7328 11.1333 9.23942 12.56C8.14609 13.6 6.42609 13.5867 5.33276 12.56C3.85276 11.1333 2.13276 8.84001 2.75942 6.13334Z" stroke="#7A63EC" stroke-width="2"/>
<path id="Vector_2" d="M20.0933 22.1333C21.16 17.52 28.1467 17.52 29.2133 22.1333C29.84 24.84 28.12 27.1333 26.6133 28.56C25.52 29.6 23.7867 29.5867 22.6933 28.56C21.1867 27.1333 19.4667 24.84 20.0933 22.1333Z" stroke="#7A63EC" stroke-width="2"/>
<path id="Vector_3" d="M16.0003 6.66675H19.5736C22.0403 6.66675 23.1869 9.72008 21.3336 11.3467L10.6803 20.6667C8.82692 22.2801 9.97358 25.3334 12.4269 25.3334H16.0003" stroke="#7A63EC" stroke-width="2" stroke-linecap="round" stroke-linejoin="round"/>
<path id="Vector_4" d="M7.31496 7.33341H7.33036" stroke="#7A63EC" stroke-width="2" stroke-linecap="round" stroke-linejoin="round"/>
<path id="Vector_5" d="M24.6489 23.3334H24.6643" stroke="#7A63EC" stroke-width="2" stroke-linecap="round" stroke-linejoin="round"/>
</g>
</g>
</g>
</svg>
