<svg width="50" height="85" viewBox="0 0 50 85" fill="none" xmlns="http://www.w3.org/2000/svg">
<path d="M50.0002 4.8797V61.3931C50.0002 62.1782 49.9772 62.9474 49.9285 63.6955C49.5281 70.064 47.4146 75.0996 43.5924 78.7996C41.1222 81.1893 38.0084 82.8888 34.2536 83.8949C31.5125 84.6315 28.429 85 25.0003 85C20.287 85 16.2265 84.3047 12.8164 82.9117C13.0271 82.9117 13.2355 82.9093 13.4391 82.9048C13.4969 82.9048 13.5527 82.9025 13.6082 82.9001C13.6729 82.898 13.7356 82.898 13.7981 82.8956C13.937 82.8909 14.0735 82.8841 14.2101 82.8772C14.2193 82.8749 14.2309 82.8749 14.2402 82.8749C14.2424 82.8749 14.2424 82.8749 14.2448 82.8749C14.3627 82.8704 14.4832 82.8633 14.5991 82.8543C14.6916 82.8494 14.7843 82.8428 14.8768 82.8333C14.9092 82.8333 14.9438 82.831 14.9762 82.8264C15.106 82.8173 15.2356 82.8057 15.3629 82.7917C15.3955 82.7917 15.4255 82.7873 15.4556 82.7849C15.5064 82.7805 15.5597 82.7736 15.6108 82.7688C15.7588 82.7528 15.9046 82.7367 16.0506 82.7183C16.076 82.716 16.0991 82.7114 16.1245 82.7091C16.2242 82.6976 16.3214 82.6838 16.4187 82.67C16.4742 82.6631 16.5274 82.6562 16.5829 82.647C16.6176 82.6424 16.6525 82.6376 16.6849 82.6307C16.84 82.61 16.9927 82.5847 17.1432 82.5571C17.1548 82.5547 17.1686 82.5524 17.1802 82.5503C17.3237 82.5271 17.4651 82.5018 17.6062 82.4719C17.6642 82.4605 17.7197 82.4513 17.7775 82.4398C17.8608 82.4237 17.9442 82.4051 18.0251 82.3867C18.0483 82.382 18.0693 82.3775 18.0924 82.3727C18.104 82.3706 18.1179 82.3683 18.1294 82.3659C18.1434 82.3635 18.1549 82.3591 18.1688 82.3567C18.1803 82.3546 18.1895 82.3522 18.2011 82.3499C18.4211 82.2993 18.6363 82.2486 18.8494 82.1933C18.9143 82.1771 18.979 82.161 19.0414 82.1425C19.1388 82.1173 19.2336 82.0897 19.3286 82.0644C19.4559 82.0274 19.5832 81.9906 19.7083 81.9516C19.8331 81.9148 19.9584 81.8756 20.0809 81.8342C20.206 81.7949 20.3264 81.7535 20.4491 81.7099C20.6921 81.627 20.9281 81.5371 21.1621 81.445C21.389 81.3552 21.6091 81.2632 21.8265 81.1686C21.8358 81.164 21.8427 81.1617 21.8519 81.1572C21.9654 81.1065 22.0765 81.0559 22.1875 81.003C22.3357 80.9339 22.4816 80.8647 22.6252 80.7911C22.6623 80.7727 22.7017 80.7542 22.7387 80.7334C22.8799 80.6622 23.0188 80.5907 23.1576 80.5148C23.315 80.4296 23.4702 80.342 23.6229 80.2523C23.7757 80.1624 23.9262 80.0727 24.0745 79.9809C24.174 79.9186 24.2713 79.8564 24.3684 79.792C24.5861 79.6515 24.799 79.504 25.0074 79.3569C25.0767 79.306 25.1463 79.2554 25.2156 79.2025C25.3986 79.0689 25.5768 78.9306 25.7529 78.7904C25.8408 78.7188 25.9288 78.6475 26.0143 78.5762C26.1 78.5071 26.1857 78.4334 26.269 78.3598C26.3433 78.2975 26.4149 78.2354 26.4843 78.1709C26.5166 78.1435 26.5469 78.1157 26.5792 78.0857C26.6533 78.0189 26.7273 77.9523 26.7992 77.8831C26.8754 77.8118 26.9521 77.7382 27.0283 77.6643C27.1 77.5954 27.1697 77.5286 27.2367 77.4594C27.3758 77.3215 27.5099 77.1832 27.6419 77.0427C27.7321 76.9438 27.8225 76.847 27.9103 76.7481C28.0563 76.5869 28.1975 76.4256 28.334 76.262C28.4036 76.1794 28.4707 76.0965 28.5377 76.0135C28.6535 75.8709 28.767 75.728 28.8757 75.5852C28.9706 75.4632 29.0634 75.3413 29.1513 75.2169C29.2021 75.1478 29.2509 75.0812 29.2994 75.012C29.4268 74.8369 29.5472 74.6598 29.6675 74.4802C29.7392 74.3742 29.8085 74.266 29.8783 74.1577C29.9222 74.0911 29.9661 74.0219 30.0077 73.9528C30.0772 73.8402 30.1468 73.7295 30.2137 73.6168C30.4176 73.2807 30.6096 72.9398 30.7948 72.5968C30.9177 72.369 31.0357 72.1386 31.1468 71.9105C31.2555 71.6919 31.3599 71.4731 31.4615 71.2521C31.4663 71.2406 31.4708 71.2314 31.4755 71.22C31.5125 71.1395 31.5496 71.0588 31.5842 70.9783C31.6353 70.8631 31.6863 70.7502 31.7349 70.635C31.8043 70.4762 31.8712 70.3175 31.9339 70.1586C31.9362 70.1516 31.9386 70.1447 31.941 70.1402C32.001 69.995 32.0589 69.8499 32.1123 69.7047C32.1655 69.5713 32.214 69.4377 32.2626 69.3043C32.3134 69.1707 32.3599 69.0371 32.4086 68.9037C32.434 68.8298 32.4594 68.7564 32.4848 68.6827C32.5982 68.351 32.7048 68.0217 32.8043 67.695C32.9016 67.3678 32.9942 67.0434 33.0822 66.7255C33.1029 66.645 33.1238 66.5666 33.1449 66.4884C33.1539 66.4608 33.161 66.4308 33.1679 66.403C33.2002 66.2743 33.2327 66.1476 33.265 66.021C33.2766 65.9771 33.2859 65.9334 33.2975 65.8898L33.3877 65.5028C33.4155 65.3784 33.4432 65.2566 33.471 65.1346C33.5546 64.75 33.6286 64.3772 33.6956 64.0132C33.721 63.8728 33.7464 63.7323 33.7698 63.5942C33.7929 63.4561 33.8161 63.3178 33.8368 63.1844C33.8484 63.1152 33.86 63.0484 33.8693 62.9818C33.8878 62.8643 33.9063 62.7493 33.9201 62.6341C33.9225 62.6202 33.9248 62.6041 33.927 62.5881C33.9548 62.3879 33.9828 62.1919 34.006 62.0033C34.0082 61.9825 34.0105 61.9618 34.0151 61.9412C34.0267 61.8442 34.0383 61.7477 34.0476 61.6556C34.0777 61.4091 34.1007 61.1745 34.1216 60.9511C34.1285 60.8912 34.133 60.8336 34.1378 60.7736C34.147 60.6841 34.1539 60.5942 34.161 60.5066C34.1677 60.4146 34.175 60.3272 34.1819 60.2394C34.1843 60.1936 34.1888 60.1475 34.1912 60.1015C34.2028 59.9311 34.212 59.7722 34.2213 59.6247C34.2235 59.581 34.2258 59.5397 34.2282 59.4981C34.2303 59.4129 34.2351 59.33 34.2374 59.2519C34.2396 59.2172 34.2396 59.1851 34.242 59.1528C34.242 59.1343 34.2443 59.1159 34.2443 59.0975V59.0515C34.2467 58.9847 34.2489 58.9226 34.2489 58.8673C34.2536 58.7245 34.2536 58.607 34.2536 58.5243V33.5773C34.2536 32.0739 33.4964 30.6764 32.251 29.8473C32.2441 29.8405 32.2372 29.8381 32.2301 29.8334C32.1539 29.7829 32.0775 29.7347 31.9965 29.6884L31.2462 29.2579C31.2301 29.2489 31.2116 29.2373 31.1954 29.2281L19.4074 22.459C18.273 21.8096 17.5344 20.8195 17.1848 19.7281C17.0299 19.2446 16.9533 18.7383 16.9533 18.2338C16.9533 18.1488 16.9557 18.0634 16.9603 17.9783C16.9603 17.976 16.9603 17.976 16.9603 17.976C16.9649 17.8884 16.9719 17.8032 16.9811 17.7158C16.9904 17.6306 17.0019 17.5454 17.0158 17.4602C17.0252 17.3889 17.0389 17.3197 17.053 17.2484C17.0553 17.2369 17.0577 17.2232 17.0599 17.2116C17.0623 17.2092 17.0623 17.2069 17.0623 17.2047C17.0692 17.1701 17.0784 17.1332 17.0877 17.0988C17.0993 17.0482 17.1108 16.9951 17.1247 16.9467C17.1895 16.7028 17.273 16.4656 17.3793 16.2354C17.3979 16.1847 17.421 16.1363 17.4489 16.0834C17.4582 16.065 17.4674 16.0442 17.4789 16.0258C17.5113 15.959 17.546 15.8946 17.583 15.8301C17.6015 15.7956 17.6223 15.7586 17.6455 15.722C17.6873 15.6552 17.7312 15.586 17.7798 15.5124C17.7867 15.5031 17.7913 15.4939 17.7983 15.4847C17.8538 15.4042 17.9141 15.3211 17.9836 15.2338C18.009 15.1993 18.0367 15.1672 18.0646 15.1347C18.0924 15.1002 18.1248 15.0636 18.1572 15.0265C18.2474 14.9252 18.3471 14.8216 18.4603 14.7156C18.6479 14.5383 18.8725 14.3589 19.1388 14.1769C19.266 14.0987 19.3957 14.0204 19.5255 13.9422C19.5485 13.9283 19.5718 13.9144 19.5972 13.8983L20.7128 13.2583C20.7361 13.2444 20.7617 13.2307 20.7847 13.2168C21.2777 12.9382 21.7707 12.662 22.2502 12.3764C22.2663 12.3672 22.2849 12.3556 22.301 12.3464L28.5863 8.73852L34.8693 5.13064C34.9272 5.09616 34.9875 5.06148 35.0454 5.02936L38.8743 2.82823C39.6405 2.39079 40.4022 1.9557 41.1592 1.51826L41.1684 1.51355C41.1846 1.50199 41.2102 1.49043 41.2358 1.47437L41.3351 1.41698C41.3422 1.41227 41.3491 1.41013 41.3536 1.4052L42.6526 0.659431C45.9188 -1.21474 50.0002 1.129 50.0002 4.8797Z" fill="#F57C1E"/>
<path d="M17.7091 15.6159C17.7321 15.5815 17.7551 15.5468 17.7781 15.5123C17.7298 15.586 17.6861 15.6551 17.6445 15.7219C17.6653 15.6851 17.6861 15.6504 17.7091 15.6159Z" fill="#F57C1E"/>
<path d="M18.427 14.7435C18.4386 14.7343 18.4479 14.7228 18.4594 14.7157C18.3462 14.8217 18.2465 14.9253 18.1562 15.0266C18.2095 14.96 18.2721 14.8954 18.3346 14.8333C18.3646 14.8033 18.3947 14.7712 18.427 14.7435Z" fill="#F57C1E"/>
<path d="M19.0768 14.2184C19.0977 14.2021 19.1186 14.1884 19.1394 14.1769C18.8731 14.3589 18.6485 14.5383 18.4609 14.7156C18.5861 14.5937 18.7181 14.4786 18.8615 14.3704C18.9057 14.3357 18.9519 14.3036 19.0005 14.2713C19.0259 14.2505 19.0513 14.2345 19.0768 14.2184Z" fill="#F57C1E"/>
<path d="M19.4052 14.0088L19.5234 13.9422C19.3936 14.0204 19.2639 14.0987 19.1367 14.1769C19.153 14.1632 19.1714 14.1516 19.19 14.1424C19.2015 14.1308 19.2153 14.124 19.2269 14.1171C19.2847 14.0803 19.3451 14.0435 19.4052 14.0088Z" fill="#F57C1E"/>
<path d="M22.2506 12.3764C21.7712 12.662 21.2782 12.9382 20.7852 13.2168L22.2506 12.3764Z" fill="#F57C1E"/>
<path d="M34.25 57.6607C34.2524 57.5708 34.2524 57.4813 34.2524 57.3914V57.677C34.2524 57.6723 34.2524 57.6654 34.25 57.6607Z" fill="#E61445"/>
<path d="M38.8739 2.82829L35.045 5.02942C34.9871 5.06154 34.9268 5.09623 34.8689 5.1307L28.5859 8.73858L22.3006 12.3465C22.2844 12.3557 22.2659 12.3672 22.2497 12.3764L20.7843 13.2169C20.7612 13.2308 20.7356 13.2445 20.7124 13.2584L19.5967 13.8984C19.5713 13.9145 19.5481 13.9284 19.5251 13.9423L19.4069 14.0089C19.3468 14.0436 19.2864 14.078 19.2285 14.1172C19.217 14.1241 19.2031 14.1309 19.1916 14.1425C19.173 14.1517 19.1546 14.1633 19.1384 14.177C19.1175 14.1885 19.0966 14.2022 19.0757 14.2185C19.0502 14.2346 19.0248 14.2506 18.9995 14.2714C18.9508 14.3037 18.9046 14.3358 18.8604 14.3705C18.7171 14.4787 18.585 14.5938 18.4599 14.7157C18.4484 14.7227 18.4391 14.7343 18.4275 14.7435C18.3951 14.7711 18.3651 14.8033 18.335 14.8332C18.2726 14.8953 18.2099 14.96 18.1567 15.0266C18.1243 15.0636 18.0919 15.1002 18.0642 15.1347C18.0363 15.1673 18.0085 15.1994 17.9831 15.2338C17.9137 15.3212 17.8534 15.4043 17.7979 15.4848C17.7909 15.494 17.7863 15.5032 17.7794 15.5124C17.7562 15.5469 17.7331 15.5816 17.71 15.6161C17.6869 15.6505 17.666 15.6852 17.6451 15.722C17.6219 15.7587 17.6011 15.7957 17.5826 15.8302C17.5456 15.8946 17.5108 15.9591 17.4785 16.0259C17.4669 16.0443 17.4577 16.0651 17.4485 16.0835C17.4205 16.1364 17.3974 16.1847 17.3788 16.2355C17.2725 16.4657 17.189 16.7029 17.1242 16.9468C17.1174 16.9699 17.1126 16.9907 17.1058 17.0136C17.0989 17.0412 17.0942 17.0712 17.0872 17.0988C17.078 17.1333 17.0687 17.1701 17.0619 17.2048C17.0619 17.2069 17.0619 17.2093 17.0595 17.2117C17.0572 17.2232 17.0549 17.2369 17.0525 17.2485C17.0385 17.3198 17.0248 17.3889 17.0154 17.4602C16.9992 17.5455 16.99 17.6307 16.9806 17.7159C16.9715 17.8033 16.9645 17.8885 16.9599 17.9761C16.9599 17.9761 16.9599 17.9761 16.9599 17.9784C16.9552 18.0634 16.9529 18.1488 16.9529 18.2338C16.9529 18.7383 17.0295 19.2447 17.1844 19.7282C16.2261 21.752 15.7467 24.3814 15.7467 27.6118V57.3915C15.7467 61.4323 16.4945 64.5291 17.9878 66.6795C19.4832 68.8346 21.8192 69.9097 24.9998 69.9097C27.4145 69.9097 29.3429 69.2904 30.7853 68.0473C30.2738 70.4946 29.4148 72.8709 28.095 74.9982C26.5626 77.5033 24.3193 79.5848 21.6362 80.9292C18.9555 82.2923 15.881 82.8773 12.816 82.9117C12.6493 82.8428 12.4848 82.7736 12.323 82.7023C12.2465 82.67 12.1724 82.6377 12.0984 82.6032C11.9617 82.5432 11.8274 82.4812 11.6956 82.4167C11.6563 82.3983 11.6167 82.3799 11.5775 82.3615C11.4037 82.2786 11.2324 82.1934 11.0659 82.1058C10.8761 82.0093 10.6908 81.9101 10.5079 81.8088C8.97063 80.9568 7.59328 79.9347 6.37792 78.742C2.12513 74.5676 0 68.7862 0 61.3931V23.6101C0 16.1432 2.13439 10.3413 6.40803 6.206C10.6793 2.07075 16.8766 0.00322723 24.9998 0.00322723C29.1183 0.00322723 32.7392 0.528252 35.8622 1.58042C36.1976 1.68855 36.5264 1.80824 36.8504 1.93264C37.1447 2.04548 37.4338 2.16303 37.7189 2.28957C37.8043 2.32404 37.8898 2.36324 37.9757 2.40221C38.1169 2.46237 38.2558 2.5266 38.3946 2.59341C38.5568 2.66942 38.7144 2.74779 38.8739 2.82829Z" fill="#7A63EC"/>
<path d="M33.3916 63.8107C33.2989 64.1029 33.1972 64.3817 33.0859 64.6534C33.1949 64.3817 33.2967 64.1008 33.3916 63.8107Z" fill="#0F1222"/>
<path d="M33.7042 62.7007C33.6396 62.9795 33.5655 63.2536 33.4844 63.5159C33.5632 63.2512 33.6372 62.9795 33.7042 62.7007Z" fill="#0F1222"/>
<path d="M50.0001 42.4165V49.2661C49.9609 48.4857 49.8266 47.6983 49.5973 46.92C49.2688 45.8263 48.7755 44.751 48.1691 43.722C46.9514 41.6566 45.2961 39.7824 43.4928 38.0603C41.6824 36.3403 39.696 34.7746 37.6288 33.3103C35.8948 32.0808 34.0914 30.9342 32.2509 29.8473C32.244 29.8405 32.2371 29.8381 32.23 29.8334C31.9036 29.6403 31.5751 29.4467 31.2461 29.2579C31.23 29.2489 31.2115 29.2373 31.1953 29.2281C33.5172 30.2803 35.8092 31.4108 38.0337 32.6816C40.2585 33.9481 42.4301 35.3341 44.4767 36.9274C45.4997 37.7262 46.4907 38.5737 47.4306 39.4923C48.3495 40.3879 49.2225 41.3572 50.0001 42.4165Z" fill="#292B49"/>
<path d="M38.8726 2.82824C37.5946 3.55581 36.3122 4.28338 35.0437 5.02936C34.9858 5.06148 34.9255 5.09617 34.8676 5.13064L28.5846 8.73852L22.2993 12.3464C22.2831 12.3556 22.2646 12.3672 22.2484 12.3764C21.769 12.662 21.276 12.9382 20.783 13.2168C20.7599 13.2307 20.7348 13.2448 20.7111 13.2583C20.3384 13.4722 19.9655 13.6861 19.5954 13.8983C19.5694 13.9133 19.5468 13.9283 19.5238 13.9422C19.394 14.0204 19.2642 14.0988 19.1371 14.1769C18.8707 14.3589 18.6461 14.5383 18.4586 14.7156C18.3453 14.8216 18.2457 14.9252 18.1554 15.0265C18.123 15.0636 18.0906 15.1002 18.0629 15.1347C18.0341 15.1685 18.0091 15.1982 17.9818 15.2338C17.9124 15.3211 17.8521 15.4042 17.7966 15.4847C17.7896 15.4939 17.785 15.5031 17.7781 15.5124C17.7295 15.586 17.6856 15.6552 17.6438 15.722C17.6206 15.7586 17.5998 15.7956 17.5813 15.8301C17.5397 15.8993 17.5049 15.9635 17.4772 16.0258C17.4656 16.0442 17.4564 16.065 17.4471 16.0834C17.4192 16.1363 17.3961 16.1847 17.3775 16.2354C17.2712 16.4656 17.1877 16.7028 17.1229 16.9467C17.1091 16.9951 17.0976 17.0482 17.0859 17.0988C17.0929 17.0711 17.0976 17.0412 17.1045 17.0135C17.2247 16.4519 17.4099 15.8946 17.7295 15.3974C18.0581 14.87 18.5282 14.4394 19.0073 14.0641C19.975 13.3204 20.9496 12.6091 21.9197 11.8839L27.7581 7.55981L33.6036 3.24277C34.3558 2.68777 35.1083 2.13536 35.8609 1.58037C36.1963 1.68849 36.5251 1.80818 36.8491 1.93258C37.1434 2.04542 37.4325 2.16297 37.7176 2.28951C37.803 2.32399 37.8885 2.36318 37.9744 2.40215C38.1156 2.46231 38.2545 2.52654 38.3933 2.59335C38.5555 2.66936 38.713 2.74773 38.8726 2.82824Z" fill="#292B49"/>
<path d="M41.3331 1.41698C41.3057 1.43518 41.2688 1.45595 41.2344 1.47437L41.3331 1.41698Z" fill="#2D0E27"/>
<path d="M34.2536 57.6771V58.5244C34.2536 58.591 34.2536 58.6832 34.2512 58.789C34.2512 58.8445 34.2489 58.8997 34.2467 58.9548C34.2467 58.9847 34.2443 59.0168 34.2443 59.0515V59.0976C34.1793 61.819 33.8971 64.5451 33.2372 67.2045C32.4824 70.2758 31.2393 73.276 29.3388 75.8386C27.4612 78.4127 24.8567 80.4413 21.9469 81.611C19.0345 82.8034 15.8722 83.1259 12.8164 82.9117C15.8815 82.8773 18.9559 82.2923 21.6366 80.9292C24.3198 79.5848 26.5631 77.5033 28.0955 74.9982C29.4152 72.8709 30.2742 70.4946 30.7857 68.0473C31.2439 67.6533 31.6538 67.1974 32.0127 66.6795C32.4292 66.0787 32.786 65.4063 33.0867 64.658C33.0867 64.6556 33.0867 64.6556 33.0867 64.6535C33.198 64.3818 33.2996 64.103 33.3924 63.8107C33.4226 63.7139 33.4525 63.615 33.4826 63.5159C33.5638 63.2536 33.6379 62.9795 33.7025 62.7007C33.7371 62.5605 33.7698 62.42 33.7976 62.2749C33.8275 62.1346 33.8553 61.9941 33.8831 61.849C33.8854 61.8351 33.8878 61.819 33.89 61.8053C33.9132 61.6762 33.9363 61.5475 33.9574 61.416C33.969 61.3447 33.9804 61.2756 33.9896 61.2043C34.006 61.1053 34.0198 61.0041 34.0336 60.9028C34.0753 60.5987 34.11 60.2881 34.1401 59.9703C34.1563 59.8091 34.1677 59.6481 34.1793 59.4821C34.1935 59.3164 34.2028 59.1483 34.212 58.9779C34.2189 58.8398 34.2258 58.7038 34.2303 58.5633C34.242 58.2687 34.2512 57.6977 34.2536 57.3915C34.256 57.396 34.2536 57.6724 34.2536 57.6771Z" fill="#292B49"/>
<path d="M34.2422 59.0515C34.2422 59.0168 34.2445 58.9847 34.2445 58.9547C34.2445 59.0031 34.2445 59.0494 34.2422 59.0975V59.0515Z" fill="#2D0E27"/>
</svg>
