<svg width="18" height="18" viewBox="0 0 18 18" fill="none" xmlns="http://www.w3.org/2000/svg">
<path d="M12 1.5H6C3 1.5 1.5 3 1.5 6V15.75C1.5 16.1625 1.8375 16.5 2.25 16.5H12C15 16.5 16.5 15 16.5 12V6C16.5 3 15 1.5 12 1.5Z" stroke="#888AA0" stroke-width="1.5" stroke-linecap="round" stroke-linejoin="round"/>
<path d="M9.68064 5.88011L5.78813 9.77261C5.63813 9.92261 5.49564 10.2151 5.46564 10.4251L5.25564 11.9101C5.18064 12.4501 5.55564 12.8251 6.09564 12.7501L7.58062 12.5401C7.79062 12.5101 8.08314 12.3676 8.23314 12.2176L12.1256 8.32511C12.7931 7.65761 13.1156 6.87761 12.1256 5.88761C11.1356 4.89011 10.3556 5.20511 9.68064 5.88011Z" stroke="#888AA0" stroke-width="1.5" stroke-miterlimit="10" stroke-linecap="round" stroke-linejoin="round"/>
<path d="M9.125 6.43506C9.455 7.61256 10.3775 8.54256 11.5625 8.87256" stroke="#888AA0" stroke-width="1.5" stroke-miterlimit="10" stroke-linecap="round" stroke-linejoin="round"/>
</svg>
