<svg width="290" height="240" viewBox="0 0 290 240" fill="none" xmlns="http://www.w3.org/2000/svg">
<path d="M144.934 106.106C129.013 103.776 109.881 100.668 103.433 82.8734C101.674 78.0169 97.8172 72.7388 93.2088 75.5087C87.5119 78.935 90.5791 87.2192 93.1791 91.2665C103.257 106.953 124.084 112.707 144.895 112.553L144.934 106.106Z" fill="#F47673"/>
<path d="M139.916 103.845C140.723 103.348 142.021 102.811 142.251 103.84C142.455 104.756 141.998 105.126 140.956 105.672C142.775 105.954 142.758 107.197 141.038 107.717C142.506 109.042 141.917 110.761 139.958 109.915C141.075 110.793 142.933 112.365 141.245 113.637C139.52 114.94 137.828 112.294 136.485 111.556L139.916 103.845Z" fill="#E5F6FB"/>
<path d="M138.422 101.058C141.823 102.373 139.785 112.355 134.663 114.038C122.965 117.883 96.554 104.805 88.4184 84.7863C82.338 75.8811 95.7019 66.7651 101.782 75.6703C112.919 95.7923 123.997 95.4782 138.422 101.058Z" fill="#41AD99"/>
<g filter="url(#filter0_b_1_27379)">
<path d="M14.0527 224.996C14.0527 233.282 74.5783 240 149.239 240C223.902 240 284.426 233.282 284.426 224.996C284.426 216.709 223.902 209.991 149.239 209.991C74.5783 209.991 14.0527 216.709 14.0527 224.996Z" fill="white" fill-opacity="0.5" style="mix-blend-mode:overlay"/>
<path d="M149.239 239.439C111.923 239.439 78.1477 237.76 53.71 235.048C41.4875 233.691 31.6203 232.078 24.8188 230.294C21.4136 229.4 18.8085 228.472 17.0666 227.527C16.1952 227.054 15.5677 226.592 15.1644 226.152C14.7638 225.714 14.6136 225.331 14.6136 224.996C14.6136 224.661 14.7639 224.278 15.1645 223.841C15.5678 223.4 16.1952 222.938 17.0667 222.465C18.8086 221.52 21.4136 220.592 24.8188 219.698C31.6203 217.913 41.4875 216.3 53.71 214.943C78.1477 212.231 111.923 210.552 149.239 210.552C186.556 210.552 220.331 212.231 244.769 214.943C256.991 216.3 266.859 217.913 273.66 219.698C277.065 220.592 279.67 221.52 281.412 222.465C282.283 222.938 282.911 223.4 283.314 223.841C283.715 224.278 283.865 224.661 283.865 224.996C283.865 225.331 283.715 225.714 283.314 226.152C282.911 226.592 282.283 227.054 281.412 227.527C279.67 228.472 277.065 229.4 273.66 230.294C266.859 232.078 256.991 233.691 244.769 235.048C220.331 237.76 186.556 239.439 149.239 239.439Z" stroke="white" stroke-opacity="0.5" stroke-width="1.12162"/>
</g>
<path d="M7.1962 214.606H108.336V23.8003H7.1962V214.606Z" fill="#DEDEDE"/>
<g filter="url(#filter1_b_1_27379)">
<path d="M99.9688 205.395V31.3123H15.563V205.395H99.9688Z" fill="white" fill-opacity="0.5" style="mix-blend-mode:overlay"/>
<path d="M16.2748 32.0241H99.257V204.683H16.2748V32.0241Z" stroke="white" stroke-opacity="0.5" stroke-width="1.42359"/>
</g>
<mask id="mask0_1_27379" style="mask-type:luminance" maskUnits="userSpaceOnUse" x="15" y="32" width="85" height="175">
<path d="M99.9727 206.243V32.161H15.5669V206.243H99.9727Z" fill="white"/>
</mask>
<g mask="url(#mask0_1_27379)">
<g filter="url(#filter2_d_1_27379)">
<path d="M99.9727 206.243V168.78H15.5669V206.243H99.9727Z" fill="url(#paint0_linear_1_27379)" shape-rendering="crispEdges"/>
</g>
</g>
<path d="M14.0533 214.606L49.558 230.336H56.4141V39.5312L14.0533 23.8003V214.606Z" fill="#DEDEDE"/>
<path d="M7.19648 214.606L49.5586 230.336V39.5312L7.19648 23.8003V214.606Z" fill="#CDCDCD" style="mix-blend-mode:overlay"/>
<g filter="url(#filter3_d_1_27379)">
<path d="M39.287 140.623C39.287 138.576 40.2679 136.917 41.4795 136.917C42.6896 136.917 43.6719 138.576 43.6719 140.623C43.6719 142.67 42.6896 144.328 41.4795 144.328C40.2679 144.328 39.287 142.67 39.287 140.623Z" fill="url(#paint1_linear_1_27379)" shape-rendering="crispEdges"/>
</g>
<g filter="url(#filter4_d_1_27379)">
<path d="M36.9077 142.297C37.5772 142.297 38.2084 141.891 38.4674 141.23C38.8029 140.369 38.3769 139.401 37.5149 139.064L25.0243 134.199C24.1623 133.863 23.1928 134.291 22.8573 135.151C22.5219 136.012 22.9479 136.981 23.8084 137.316L36.3005 142.182C36.4987 142.26 36.7053 142.297 36.9077 142.297Z" fill="url(#paint2_linear_1_27379)" shape-rendering="crispEdges"/>
</g>
<g filter="url(#filter5_d_1_27379)">
<path d="M36.9078 142.297H40.6161C41.5389 142.297 42.2891 141.547 42.2891 140.623C42.2891 139.7 41.5389 138.951 40.6161 138.951H36.9078C35.9836 138.951 35.2349 139.7 35.2349 140.623C35.2349 141.547 35.9836 142.297 36.9078 142.297Z" fill="url(#paint3_linear_1_27379)" shape-rendering="crispEdges"/>
</g>
<path d="M170.606 110.365C186.576 108.397 205.774 105.725 212.624 88.0813C214.495 83.2644 218.47 78.0755 223.016 80.95C228.632 84.5064 225.378 92.7171 222.686 96.7049C212.255 112.159 191.302 117.438 170.499 116.81L170.606 110.365Z" fill="#F47673"/>
<path d="M133.67 143.828C133.67 151.371 133.67 155.142 136.013 157.485C138.356 159.828 142.127 159.828 149.67 159.828H173.656C181.199 159.828 184.97 159.828 187.313 157.485C189.656 155.142 189.656 151.371 189.656 143.828V111.633C189.656 104.09 189.656 100.319 187.313 97.976C184.97 95.6329 181.199 95.6329 173.656 95.6329H149.67C142.127 95.6329 138.356 95.6329 136.013 97.976C133.67 100.319 133.67 104.09 133.67 111.633V143.828Z" fill="url(#paint4_linear_1_27379)"/>
<g filter="url(#filter6_bd_1_27379)">
<path d="M152.232 148.234H169.26C170.246 148.234 171.008 147.429 171.008 146.489V125.904C171.008 124.92 170.201 124.159 169.26 124.159H152.232C151.246 124.159 150.484 124.965 150.484 125.904V146.489C150.484 147.429 151.291 148.234 152.232 148.234Z" fill="white" fill-opacity="0.5" style="mix-blend-mode:hard-light"/>
<path d="M152.232 147.522H169.26C169.842 147.522 170.296 147.046 170.296 146.489V125.904C170.296 125.326 169.821 124.871 169.26 124.871H152.232C151.65 124.871 151.196 125.347 151.196 125.904V146.489C151.196 147.035 151.683 147.522 152.232 147.522Z" stroke="white" stroke-opacity="0.5" stroke-width="1.42359"/>
</g>
<path opacity="0.7" d="M156.892 141.521H167.96C168.274 141.521 168.543 141.253 168.543 140.939C168.543 140.626 168.274 140.357 167.96 140.357H156.892C156.578 140.357 156.309 140.626 156.309 140.939C156.309 141.253 156.578 141.521 156.892 141.521Z" fill="url(#paint5_linear_1_27379)"/>
<path opacity="0.7" d="M163.076 144.879H167.96C168.274 144.879 168.543 144.61 168.543 144.297C168.543 143.983 168.274 143.715 167.96 143.715H163.076C162.762 143.715 162.493 143.983 162.493 144.297C162.538 144.61 162.762 144.879 163.076 144.879Z" fill="url(#paint6_linear_1_27379)"/>
<path d="M154.458 134.163C154.503 134.074 154.413 133.793 154.458 133.704C154.637 133.435 154.929 133.379 155.377 133.244C156.005 133.066 156.398 132.796 156.891 132.751C157.026 132.751 157.16 132.706 157.25 132.706C158.639 132.572 159.804 132.348 162.358 129.216C162.627 128.903 162.761 128.59 163.03 128.276C163.299 128.008 163.747 128.321 164.33 128.455C164.464 128.5 164.554 128.5 164.688 128.5C165.136 128.5 165.674 128.455 166.167 128.411C166.839 128.321 166.436 127.963 167.243 133.109C167.287 133.512 167.332 133.87 167.377 134.273C167.422 134.586 167.422 134.944 167.422 135.257C167.422 135.391 167.377 135.615 167.243 135.615C165.092 135.839 163.703 135.749 160.297 135.705C158.594 135.705 156.891 135.705 155.188 135.391L154.785 135.347C154.426 135.302 154.068 135.168 154.068 134.944C154.068 134.631 154.368 134.477 154.458 134.163Z" fill="#E77D09"/>
<path d="M156.891 132.796L157.295 133.96C159.491 133.87 161.731 132.483 162.896 130.693C163.3 130.067 163.613 129.395 164.061 128.858C164.061 128.858 164.196 128.679 164.375 128.545C163.792 128.411 163.344 128.098 163.075 128.366C162.851 128.59 162.762 128.769 162.583 128.993C162.538 129.082 162.493 129.127 162.448 129.216C162.448 129.261 162.403 129.261 162.403 129.306C162.269 129.485 162.09 129.664 161.955 129.843C161.91 129.888 161.866 129.932 161.821 130.022C161.641 130.201 161.507 130.38 161.328 130.559C161.283 130.604 161.238 130.648 161.193 130.738C161.014 130.917 160.88 131.096 160.7 131.23C160.656 131.275 160.566 131.32 160.521 131.409C160.342 131.543 160.208 131.678 160.073 131.812C159.983 131.857 159.939 131.901 159.849 131.991C159.715 132.08 159.625 132.17 159.491 132.215C159.401 132.259 159.311 132.304 159.266 132.349C159.042 132.483 158.818 132.573 158.594 132.662C158.505 132.707 158.415 132.707 158.325 132.752C157.967 132.841 157.653 132.886 157.295 132.931C157.16 132.752 157.026 132.752 156.891 132.796Z" fill="#F79C39"/>
<path d="M154.068 134.989C154.068 135.213 154.471 135.347 154.785 135.392L155.188 135.437C156.846 135.75 158.594 135.75 160.297 135.75C163.703 135.75 165.047 135.84 167.243 135.661C167.422 135.661 167.422 135.437 167.422 135.303C167.422 134.945 167.422 134.631 167.377 134.318C166.167 134.408 161.059 134.676 157.16 134.273C156.085 134.139 155.099 134.005 154.337 133.781C154.292 133.871 154.247 133.96 154.202 134.05C154.113 134.318 154.068 134.631 154.068 134.989Z" fill="#E5ECF4"/>
<path d="M154.201 134.005C155.008 134.273 155.814 134.452 156.666 134.497C156.8 134.497 156.934 134.497 157.024 134.452C157.159 134.407 157.159 134.318 157.203 134.228C157.203 134.184 157.203 134.139 157.203 134.094C157.248 133.647 157.293 133.155 157.293 132.707C156.71 132.752 156.083 132.797 155.321 133.065C154.873 133.199 154.559 133.423 154.38 133.736C154.291 133.826 154.246 133.915 154.201 134.005Z" fill="#E5ECF4"/>
<path d="M162.447 129.172C162.447 129.217 162.447 129.217 162.447 129.172L163.03 129.62C163.074 129.62 163.074 129.665 163.119 129.665C163.164 129.665 163.209 129.665 163.209 129.62C163.254 129.575 163.254 129.486 163.164 129.441L162.581 128.993H162.537C162.537 129.038 162.492 129.127 162.447 129.172Z" fill="#DFECFD"/>
<path d="M161.777 129.932C161.777 129.977 161.777 129.977 161.822 130.022C162.001 130.201 162.181 130.38 162.405 130.559C162.449 130.559 162.449 130.604 162.494 130.604C162.539 130.604 162.584 130.604 162.584 130.559C162.629 130.514 162.629 130.425 162.539 130.38C162.36 130.246 162.181 130.067 162.001 129.888C161.956 129.843 161.956 129.843 161.912 129.843C161.912 129.843 161.822 129.888 161.777 129.932Z" fill="#DFECFD"/>
<path d="M161.191 130.648C161.191 130.693 161.191 130.693 161.236 130.738C161.415 130.917 161.639 131.14 161.818 131.32C161.863 131.364 161.863 131.364 161.908 131.364C161.953 131.364 161.998 131.364 161.998 131.32C162.042 131.275 162.042 131.185 161.998 131.14C161.818 130.961 161.594 130.738 161.415 130.558C161.37 130.514 161.37 130.514 161.325 130.514C161.281 130.514 161.236 130.603 161.191 130.648Z" fill="#DFECFD"/>
<path d="M160.521 131.274C160.521 131.319 160.521 131.319 160.565 131.363C160.79 131.542 161.014 131.766 161.148 131.99C161.193 132.035 161.193 132.035 161.238 132.035C161.282 132.035 161.282 132.035 161.327 131.99C161.372 131.945 161.417 131.856 161.372 131.811C161.193 131.587 160.969 131.363 160.745 131.139C160.745 131.139 160.7 131.139 160.7 131.095C160.61 131.184 160.565 131.229 160.521 131.274Z" fill="#DFECFD"/>
<path d="M159.848 131.811C159.848 131.811 159.848 131.856 159.848 131.811C159.983 132.08 160.117 132.348 160.296 132.617C160.341 132.662 160.386 132.707 160.431 132.707H160.476C160.521 132.662 160.565 132.572 160.521 132.528C160.386 132.259 160.252 131.99 160.117 131.766L160.072 131.722C159.983 131.722 159.938 131.766 159.848 131.811Z" fill="#DFECFD"/>
<path d="M159.265 132.214L159.399 133.02C159.399 133.11 159.489 133.154 159.534 133.154C159.623 133.154 159.668 133.065 159.668 132.975L159.534 132.08C159.534 132.035 159.534 132.035 159.489 132.035C159.399 132.125 159.354 132.169 159.265 132.214Z" fill="#DFECFD"/>
<path d="M158.325 132.573C158.37 132.797 158.415 133.065 158.46 133.289C158.46 133.334 158.549 133.379 158.594 133.379C158.594 133.379 158.594 133.379 158.639 133.379C158.729 133.379 158.773 133.289 158.729 133.2C158.684 132.976 158.639 132.707 158.594 132.483C158.594 132.483 158.594 132.483 158.594 132.438C158.504 132.528 158.415 132.573 158.325 132.573Z" fill="#DFECFD"/>
<path d="M165.001 131.857C164.382 131.857 163.881 131.356 163.881 130.738C163.881 130.12 164.382 129.619 165.001 129.619C165.62 129.619 166.121 130.12 166.121 130.738C166.121 131.356 165.62 131.857 165.001 131.857Z" fill="white"/>
<path d="M165.001 131.185C164.754 131.185 164.553 130.985 164.553 130.738C164.553 130.49 164.754 130.29 165.001 130.29C165.249 130.29 165.449 130.49 165.449 130.738C165.449 130.985 165.249 131.185 165.001 131.185Z" fill="#F79C39"/>
<g filter="url(#filter7_d_1_27379)">
<path d="M149.372 95.6318H150.943C150.943 87.475 155.751 80.8375 161.662 80.8375C167.574 80.8375 172.383 87.475 172.383 95.6318H173.953C173.953 86.6078 168.44 79.2686 161.662 79.2686C154.885 79.2686 149.372 86.6078 149.372 95.6318Z" fill="url(#paint7_linear_1_27379)" shape-rendering="crispEdges"/>
</g>
<path d="M208.88 93.7151C213.707 95.7791 218.533 97.8402 223.36 99.9014C224.735 96.6873 226.111 93.469 227.487 90.2535C231.613 80.6028 217.132 74.4165 213.006 84.0672C211.631 87.2841 210.255 90.4982 208.88 93.7151Z" fill="#ED2765"/>
<path d="M179.363 226.814C179.375 225.758 180.748 224.249 182.411 223.46L194.783 217.966C197.521 218.005 197.823 217.897 200.561 217.935C203.379 220.535 204.321 224.4 203.038 227.327L179.357 227.28C179.357 227.131 179.36 226.976 179.363 226.814Z" fill="#41AD99"/>
<path d="M203.039 227.327C202.813 227.838 202.528 228.325 202.164 228.768C194.119 228.654 187.381 228.845 179.337 228.732C179.337 228.732 179.344 228.111 179.358 227.28L203.039 227.327Z" fill="#CFCFCD"/>
<path d="M207.399 130.764L232.043 137.615C228.073 153.175 221.425 166.271 214.548 180.408C214.913 195.286 211.503 208.278 203.788 221.571L193.308 218.076C197.959 188.095 198.741 167.146 207.399 130.764Z" fill="#AA6E43"/>
<path d="M218.209 228.304C218.224 227.249 219.597 225.74 221.26 224.95L233.631 219.456C236.37 219.495 236.67 219.388 239.409 219.426C242.227 222.028 243.17 225.89 241.884 228.816L218.204 228.768C218.205 228.62 218.208 228.464 218.209 228.304Z" fill="#41AD99"/>
<path d="M241.887 228.814C241.662 229.325 241.376 229.814 241.013 230.255C232.968 230.143 226.23 230.332 218.186 230.22C218.186 230.22 218.193 229.599 218.206 228.766L241.887 228.814Z" fill="#CFCFCD"/>
<path d="M237.852 131.685C238.17 134.479 238.377 137.229 238.506 139.952C239.12 152.784 237.862 164.988 236.704 177.907C242.329 191.681 243.761 205.034 241.274 220.198L230.234 220.65C224.32 192.813 218.045 173.612 213.299 140.733C212.985 138.56 212.678 136.329 212.378 134.03L237.852 131.685Z" fill="#CC7E4C"/>
<path d="M218.219 90.9731C221.175 85.4842 234.55 88.5823 232.7 97.1593C230.935 105.337 225.936 119.116 205.057 123.68C205.255 120.678 205.427 117.468 205.485 114.285C205.526 112.057 205.509 109.847 205.406 107.732C210.591 105.23 215.584 95.8663 218.219 90.9731Z" fill="#FABC3F"/>
<path d="M205.058 123.679C225.937 119.116 230.936 105.337 232.701 97.1591C234.551 88.5821 221.176 85.484 218.221 90.9728C215.585 95.8661 210.592 105.23 205.407 107.732C205.366 106.844 205.308 105.97 205.233 105.121C204.003 91.3732 207.053 79.1705 215.34 74.14C222.135 70.0149 231.882 74.3154 236.458 83.2376C242.923 95.8378 240.029 125.073 239.249 138.587C233.734 139.406 212.678 141.472 204.244 136.435C204.252 134.973 204.391 132.883 204.572 130.406C204.721 128.383 204.898 126.1 205.058 123.679Z" fill="#FCD457"/>
<path d="M238.914 91.3542L238.666 97.126C231.411 79.7569 221.089 82.3924 217.758 89.1276C218.809 80.5124 231.223 74.5482 238.914 91.3542Z" fill="#2F635F"/>
<path d="M217.757 89.1274C217.622 90.2322 217.672 91.3795 217.945 92.5296C221.005 105.42 234.696 121.575 239 128.698L238.822 132.83C234.517 125.709 219.997 108.842 216.937 95.9502C216.377 93.5948 216.745 91.173 217.757 89.1274Z" fill="#2F635F"/>
<path d="M220.848 80.1465C223.62 80.1465 225.867 77.9 225.867 75.1287V63.3702C225.867 60.5989 223.62 58.351 220.848 58.351C218.076 58.351 215.828 60.5989 215.828 63.3702V75.1287C215.828 77.9 218.076 80.1465 220.848 80.1465Z" fill="#F59A79"/>
<path d="M218.179 66.8676C216.074 68.6147 215.204 71.0408 216.236 72.2814C217.267 73.5207 219.809 73.1104 221.916 71.3605C224.02 69.6134 224.891 67.1901 223.859 65.9495C222.827 64.7088 220.284 65.1191 218.179 66.8676Z" fill="#F47673"/>
<path d="M208.645 51.7964C205.062 59.0111 207.08 67.3023 213.149 70.3155C219.221 73.3273 227.049 69.9223 230.632 62.7076C234.215 55.4929 232.2 47.203 226.128 44.1884C220.056 41.1766 212.229 44.5817 208.645 51.7964Z" fill="#F59A79"/>
<path d="M207.057 50.27C208.758 53.501 214.147 52.341 214.611 55.5197C216.053 65.4095 220.663 57.5964 221.509 60.7992C223.134 66.9303 223.583 70.9196 229.385 66.7944C234.2 63.371 236.582 48.9048 227.267 43.8659C220.263 40.0774 214.266 42.57 210.556 45.0046C207.601 46.9441 206.025 48.3149 207.057 50.27Z" fill="#B04027"/>
<path d="M212.102 45.505C205.304 43.2246 198.95 42.2485 197.912 43.325C196.875 44.403 201.547 47.1233 208.347 49.4023L212.102 45.505Z" fill="#59C59B"/>
<path d="M212.646 56.4053C212.695 56.4053 212.744 56.3925 212.789 56.3685C212.932 56.2879 212.983 56.1082 212.904 55.9667C212.26 54.8223 210.911 53.7415 209.351 53.9113C209.189 53.9282 209.073 54.0754 209.09 54.2366C209.108 54.3993 209.262 54.5139 209.415 54.4983C210.719 54.3569 211.84 55.2792 212.387 56.2553C212.441 56.3515 212.543 56.4053 212.646 56.4053Z" fill="#B04027"/>
<path d="M209.523 56.9116C209.384 57.6048 209.561 58.2244 209.918 58.2951C210.275 58.3658 210.675 57.8636 210.815 57.169C210.956 56.4773 210.777 55.8577 210.422 55.787C210.064 55.7148 209.662 56.2184 209.523 56.9116Z" fill="#B04027"/>
<path d="M211.824 62.87C211.227 65.3327 208.722 64.4241 207.912 62.819L211.824 62.87Z" fill="white"/>
<path d="M207.961 56.3194C207.961 56.3194 204.983 58.8728 205.552 59.7004C206.329 60.835 207.812 60.6242 207.812 60.6242L207.961 56.3194Z" fill="#F59A79"/>
<g filter="url(#filter8_d_1_27379)">
<path d="M234.398 58.1396C237.098 50.096 233.455 41.6208 226.261 39.2102C219.068 36.7983 211.048 41.3605 208.348 49.4014L234.398 58.1396Z" fill="#41AD99"/>
</g>
<path d="M220.976 58.9378C221.48 58.9378 221.85 59.0099 222.111 59.1585C222.868 59.5914 223.297 60.1798 223.385 60.907C223.515 61.9878 222.851 63.3614 221.654 64.4945C220.822 65.2797 219.884 65.9898 218.863 66.6023C217.958 65.2231 216.575 62.3202 216.042 59.6465C216.718 59.5758 217.454 59.44 218.168 59.3084C219.157 59.1259 220.179 58.9378 220.976 58.9378ZM218.738 67.1611L218.905 67.0635C220.019 66.4114 221.041 65.6489 221.941 64.7972C223.253 63.558 223.948 62.0854 223.801 60.8575C223.698 60.003 223.187 59.2886 222.319 58.7949C221.993 58.6096 221.555 58.519 220.976 58.519C220.141 58.519 219.099 58.7114 218.093 58.8968C217.307 59.0411 216.493 59.191 215.777 59.2518L215.546 59.2702L215.589 59.4966C216.118 62.4008 217.684 65.6333 218.628 67.0013L218.738 67.1611Z" fill="white"/>
<path d="M206.387 56.97C206.475 56.8951 206.605 56.9064 206.68 56.9913C207.478 57.9108 210.819 59.2575 214.773 59.2943L214.851 59.2957C215.121 59.2957 215.426 59.2802 215.778 59.2519C215.899 59.2391 215.982 59.3155 216.003 59.4231C216.52 62.2651 218.053 65.4268 218.974 66.7636C219.008 66.8132 219.019 66.8712 219.007 66.9292C218.994 66.9857 218.959 67.0338 218.909 67.0636C215.719 68.9323 212.112 69.7358 208.691 70.3243C208.68 70.3257 208.669 70.3271 208.657 70.3271C208.592 70.3271 208.531 70.2974 208.49 70.2465C206.8 68.0637 204.75 64.6926 204.578 61.0301C204.503 59.423 204.762 58.355 206.387 56.97Z" fill="white"/>
<path d="M218.993 59.3592C217.743 61.1119 217.674 63.207 218.839 64.036C220.004 64.8636 221.961 64.1152 223.209 62.3596C224.461 60.6069 224.53 58.5132 223.365 57.6828C222.2 56.8538 220.243 57.605 218.993 59.3592Z" fill="#F59A79"/>
<path d="M175.819 117.269C191.787 115.303 210.986 112.629 217.835 94.9856C219.706 90.1687 223.681 84.9798 228.227 87.8543C233.843 91.4108 230.589 99.6214 227.897 103.608C217.466 119.063 196.513 124.342 175.71 123.714L175.819 117.269Z" fill="#F59A79"/>
<path d="M169.181 119.64C167.866 119.414 166.774 119.121 166.155 118.804C165.745 118.593 165.582 118.09 165.793 117.679C166.004 117.268 166.505 117.105 166.92 117.317C168.261 118.005 173.478 118.739 176.892 118.279C177.351 118.214 177.771 118.537 177.832 118.995C177.894 119.452 177.575 119.872 177.116 119.934C174.8 120.248 171.613 120.059 169.181 119.64Z" fill="#F59A79"/>
<path d="M167.282 121.252C166.059 121.041 165.04 120.784 164.592 120.536C164.187 120.312 164.042 119.803 164.265 119.399C164.488 118.995 164.999 118.847 165.403 119.073C166.267 119.551 171.557 120.298 173.364 119.96C173.818 119.874 174.256 120.174 174.341 120.628C174.427 121.082 174.127 121.519 173.673 121.603C172.325 121.856 169.477 121.63 167.282 121.252Z" fill="#F59A79"/>
<path d="M166.308 123.181C165.814 123.095 165.417 122.992 165.172 122.873C164.757 122.67 164.584 122.17 164.788 121.754C164.991 121.339 165.493 121.167 165.908 121.37C166.607 121.713 171.191 122.017 172.794 121.482C173.231 121.336 173.705 121.573 173.851 122.013C173.998 122.451 173.76 122.924 173.323 123.071C171.84 123.564 168.291 123.522 166.308 123.181Z" fill="#F59A79"/>
<path d="M167.127 125.305C166.991 125.283 166.875 125.255 166.78 125.223C166.343 125.075 166.106 124.601 166.255 124.162C166.403 123.725 166.875 123.489 167.316 123.639C168.034 123.882 171.455 123.68 172.453 123.031C172.84 122.778 173.357 122.886 173.61 123.273C173.862 123.66 173.753 124.178 173.367 124.43C172.01 125.315 168.545 125.55 167.127 125.305Z" fill="#F59A79"/>
<path d="M173.712 126.095C172.443 125.892 171.499 125.37 170.845 124.563C169.826 123.307 169.625 121.445 170.229 118.871L170.352 118.132L171.206 118.241C173.425 118.681 174.726 118.084 174.955 117.528C175.136 117.091 174.577 116.621 174.296 116.418C173.625 116.18 172.964 115.859 172.371 115.289C172.035 114.97 172.024 114.441 172.344 114.108C172.664 113.771 173.194 113.762 173.527 114.081C174.305 114.828 175.442 115.009 176.434 115.324C178.989 116.136 180.966 118.255 181.03 120.253C181.091 122.141 180.622 123.625 179.639 124.662C178.7 125.655 176.203 126.496 173.712 126.095Z" fill="#F59A79"/>
<path d="M214.094 100.621C218.922 102.683 223.748 104.745 228.575 106.809C229.95 103.592 231.326 100.376 232.702 97.1593C236.828 87.5086 222.347 81.3223 218.221 90.973C216.845 94.1899 215.468 97.404 214.094 100.621Z" fill="#FCD457"/>
<g filter="url(#filter9_d_1_27379)">
<path d="M238.529 93.2248C238.529 94.9535 239.944 96.3682 241.674 96.3682H262.32C264.049 96.3682 265.465 94.9535 265.465 93.2248V79.1958C265.465 77.4671 264.049 76.0524 262.32 76.0524H241.674C239.944 76.0524 238.529 77.4671 238.529 79.1958V93.2248Z" fill="url(#paint8_linear_1_27379)" shape-rendering="crispEdges"/>
</g>
<g filter="url(#filter10_d_1_27379)">
<path d="M249.242 129.914C249.242 131.211 250.304 132.271 251.602 132.271H265.314C266.61 132.271 267.672 131.211 267.672 129.914V104.975C267.672 103.678 266.61 102.617 265.314 102.617H251.602C250.304 102.617 249.242 103.678 249.242 104.975V129.914Z" fill="url(#paint9_linear_1_27379)" shape-rendering="crispEdges"/>
</g>
<path d="M238.826 132.537C238.826 134.049 240.065 135.287 241.578 135.287H261.249C262.762 135.287 264 134.049 264 132.537V82.75C264 81.2377 262.762 79.9999 261.249 79.9999H241.578C240.065 79.9999 238.826 81.2377 238.826 82.75V132.537Z" fill="#41AD99"/>
<path d="M248.683 126.038C248.683 126.801 248.909 127.404 249.36 127.846C249.815 128.289 250.44 128.511 251.236 128.511C252.032 128.511 252.655 128.289 253.107 127.846C253.562 127.401 253.789 126.798 253.789 126.038C253.789 125.408 253.616 124.878 253.269 124.45C252.922 124.022 252.471 123.787 251.914 123.746L251.914 124.815C252.215 124.862 252.456 124.998 252.638 125.224C252.823 125.45 252.915 125.721 252.915 126.038C252.915 126.452 252.765 126.78 252.463 127.024C252.162 127.267 251.754 127.389 251.24 127.389C250.72 127.389 250.31 127.267 250.008 127.024C249.71 126.78 249.561 126.45 249.561 126.034C249.561 125.711 249.645 125.441 249.812 125.224C249.98 125.004 250.21 124.866 250.503 124.811L250.503 123.737C249.946 123.799 249.502 124.038 249.173 124.454C248.846 124.871 248.683 125.399 248.683 126.038Z" fill="#A6E0D7"/>
<path d="M253.789 120.596C253.789 119.824 253.56 119.213 253.103 118.761C252.645 118.309 252.023 118.084 251.236 118.084C250.449 118.084 249.826 118.309 249.369 118.761C248.911 119.21 248.683 119.821 248.683 120.596C248.683 121.373 248.911 121.988 249.369 122.439C249.826 122.891 250.449 123.117 251.236 123.117C252.023 123.117 252.645 122.891 253.103 122.439C253.56 121.985 253.789 121.37 253.789 120.596ZM252.451 119.579C252.752 119.832 252.902 120.171 252.902 120.596C252.902 121.021 252.752 121.361 252.451 121.617C252.152 121.869 251.747 121.995 251.236 121.995C250.727 121.995 250.322 121.869 250.021 121.617C249.72 121.364 249.569 121.024 249.569 120.596C249.569 120.171 249.72 119.832 250.021 119.579C250.322 119.327 250.727 119.201 251.236 119.201C251.747 119.201 252.152 119.327 252.451 119.579Z" fill="#A6E0D7"/>
<path d="M249.646 113.882L248.768 113.882L248.768 117.256L253.708 117.256L253.708 116.161L249.646 116.161L249.646 113.882Z" fill="#A6E0D7"/>
<path d="M249.646 109.746L248.768 109.746L248.768 113.121L253.708 113.121L253.708 112.025L249.646 112.025L249.646 109.746Z" fill="#A6E0D7"/>
<path d="M249.646 105.527L248.768 105.527L248.768 108.985L253.708 108.985L253.708 105.527L252.83 105.527L252.83 107.89L251.671 107.89L251.671 105.659L250.857 105.659L250.857 107.89L249.646 107.89L249.646 105.527Z" fill="#A6E0D7"/>
<path d="M248.683 102.315C248.683 103.078 248.909 103.681 249.36 104.124C249.815 104.566 250.44 104.788 251.236 104.788C252.032 104.788 252.655 104.566 253.107 104.124C253.562 103.678 253.789 103.075 253.789 102.315C253.789 101.685 253.616 101.155 253.269 100.727C252.922 100.299 252.471 100.064 251.914 100.023L251.914 101.092C252.215 101.139 252.456 101.276 252.638 101.501C252.823 101.727 252.915 101.999 252.915 102.315C252.915 102.729 252.765 103.057 252.463 103.301C252.162 103.544 251.754 103.666 251.24 103.666C250.72 103.666 250.31 103.544 250.008 103.301C249.71 103.057 249.561 102.727 249.561 102.311C249.561 101.988 249.645 101.718 249.812 101.501C249.98 101.281 250.21 101.144 250.503 101.088L250.503 100.014C249.946 100.076 249.502 100.315 249.173 100.731C248.846 101.148 248.683 101.676 248.683 102.315Z" fill="#A6E0D7"/>
<path d="M248.768 97.071L248.768 98.1665L252.83 98.1665L252.83 99.6932L253.708 99.6932L253.708 95.5443L252.83 95.5443L252.83 97.071L248.768 97.071Z" fill="#A6E0D7"/>
<path d="M249.646 91.3603L248.768 91.3603L248.768 94.8184L253.708 94.8184L253.708 91.3603L252.83 91.3603L252.83 93.7229L251.671 93.7229L251.671 91.4923L250.857 91.4923L250.857 93.7229L249.646 93.7229L249.646 91.3603Z" fill="#A6E0D7"/>
<path d="M253.708 90.454L253.708 88.4433C253.708 87.6573 253.495 87.0472 253.069 86.6131C252.642 86.1761 252.039 85.9575 251.257 85.9575C250.473 85.9575 249.862 86.1761 249.424 86.6131C248.987 87.0501 248.768 87.6602 248.768 88.4433L248.768 90.454L253.708 90.454ZM252.83 89.3585L249.646 89.3585L249.646 88.5753C249.646 88.0884 249.782 87.7174 250.055 87.4622C250.328 87.2041 250.727 87.075 251.253 87.075C251.762 87.075 252.151 87.2056 252.421 87.4666C252.694 87.7277 252.83 88.0972 252.83 88.5753L252.83 89.3585Z" fill="#A6E0D7"/>
<path d="M118.966 221.841C118.951 220.788 117.58 219.277 115.917 218.487L103.544 212.993C100.806 213.032 100.506 212.925 97.7675 212.963C94.9495 215.563 94.0069 219.428 95.2921 222.354L118.973 222.307C118.971 222.157 118.968 222.003 118.966 221.841Z" fill="#E19839"/>
<path d="M95.2957 222.353C95.5207 222.864 95.8052 223.353 96.1689 223.796C104.214 223.681 110.951 223.872 118.996 223.76C118.996 223.76 118.988 223.138 118.976 222.307L95.2957 222.353Z" fill="#CFCFCD"/>
<path d="M84.7666 124.066L109.912 119.364C116.86 155.638 103.363 183.552 105.413 213.821L96.6302 214.212C91.2023 195.502 91.9057 179.358 97.4412 170.242C92.2624 155.699 87.1416 138.46 84.7666 124.066Z" fill="#F47673"/>
<path d="M86.8744 222.712C87.1646 221.697 86.2828 219.858 84.9183 218.625L74.6484 209.807C72.0144 209.059 71.7582 208.869 69.1228 208.118C65.6763 209.8 63.6623 213.229 64.0515 216.402L86.7456 223.16C86.7895 223.016 86.8306 222.867 86.8744 222.712Z" fill="#EEB940"/>
<path d="M64.0559 216.402C64.1239 216.955 64.2569 217.504 64.4791 218.032C72.217 220.236 78.6158 222.354 86.3523 224.558C86.3523 224.558 86.525 223.959 86.75 223.16L64.0559 216.402Z" fill="#CFCFCD"/>
<path d="M79.5365 120.926C81.0991 113.03 88.7591 107.879 96.6711 109.419C104.478 110.939 109.612 118.408 108.288 126.201C100.275 127.028 87.1739 124.473 79.5365 120.926Z" fill="#EC1863"/>
<path d="M78.8437 169.365C79.3872 156.203 78.5875 143.52 80.988 130.658C80.7771 130.266 80.5888 129.861 80.4147 129.452C79.8486 128.117 79.482 126.692 79.332 125.218C79.1933 123.835 79.2456 122.407 79.5259 120.97C79.5287 120.956 79.5329 120.94 79.5372 120.926C87.1745 124.473 100.275 127.028 108.289 126.201C108.269 126.319 108.252 126.438 108.23 126.555C108.057 127.438 106.007 134.52 105.838 135.119C96.8033 167.327 85.1944 183.744 75.6591 210.673L67.9354 208.806C69.2503 192.124 71.8107 177.799 78.8437 169.365Z" fill="#F59A79"/>
<path d="M112.008 186.755C111.933 190.679 110.925 194.797 107.288 189.662C106.9 193.577 102.533 194.022 100.831 190.76C100.576 194.465 95.2045 194.973 95.0587 190.95C93.2796 194.431 87.3195 193.786 86.5368 189.852C85.6168 194.737 78.3234 192.559 78.7437 188.143C78.4253 192.63 72.5387 190.624 73.0511 186.443C71.2338 191.889 65.7095 189.045 66.0082 184.154C65.9049 186.338 64.164 188.11 62.6311 185.987C60.7006 183.313 65.2963 176.833 65.8186 174.216L112.008 186.755Z" fill="#E5F6FB"/>
<path d="M80.6888 109.358C85.1756 99.098 83.6725 95.9532 83.4007 83.6882C83.1006 70.1218 91.7259 65.22 99.5671 66.6106C108.443 68.1851 115.564 82.1774 116.675 86.7368C117.598 90.521 117.155 93.4762 116.16 96.2064C111.963 94.6333 108.368 90.7346 106.692 83.6486C104.276 73.4377 90.6771 74.9217 91.0423 85.4099C91.6721 103.55 102.497 125.327 112.853 134.27C114.276 144.212 113.383 171.259 111.937 187.458C99.7836 189.553 70.0339 186.819 64.0002 179.327C66.2676 149.365 74.9764 122.42 80.6888 109.358Z" fill="#59C59B"/>
<path d="M91.0937 85.2C90.7285 74.7118 104.327 73.2279 106.743 83.4388C108.419 90.5248 112.014 94.4235 116.211 95.9966C114.783 99.9166 112.214 103.378 110.895 108.171C109.226 114.234 111.223 122.315 112.905 134.061C102.548 125.117 91.7235 103.34 91.0937 85.2Z" fill="#41AD99"/>
<path d="M95.6842 64.5444C95.227 65.2701 97.6459 67.6141 101.085 69.7814C104.525 71.9486 107.684 73.1171 108.139 72.3928C108.598 71.6685 106.181 69.323 102.74 67.1558C99.3005 64.9886 96.1428 63.8201 95.6842 64.5444Z" fill="#E5F6FB"/>
<path d="M92.9303 66.1429C91.4045 68.1248 93.0167 71.9231 96.5311 74.6279C100.045 77.3299 104.133 77.9156 105.659 75.9337C107.185 73.9503 105.572 70.1534 102.058 67.45C98.5437 64.7452 94.4575 64.161 92.9303 66.1429Z" fill="#E5F6FB"/>
<path d="M99.5241 71.377C102.656 71.783 104.543 70.3613 104.543 67.59V55.8314C104.543 53.0602 102.297 50.8137 99.5241 50.8137C96.7514 50.8137 94.5038 53.0602 94.5038 55.8314V67.59C94.5038 70.3613 96.3919 70.971 99.5241 71.377Z" fill="#F59A79"/>
<path d="M102.19 59.3738C104.294 61.1209 105.164 63.5456 104.132 64.7862C103.1 66.0269 100.558 65.6166 98.4538 63.8667C96.3477 62.1196 95.4787 59.6963 96.5105 58.4557C97.5423 57.2136 100.084 57.6253 102.19 59.3738Z" fill="#F47673"/>
<path d="M111.726 44.3032C115.31 51.5179 113.292 59.8092 107.222 62.8224C101.15 65.8342 93.3234 62.4291 89.7397 55.2144C86.1574 47.9997 88.1714 39.7085 94.2448 36.6953C100.315 33.6835 108.142 37.0885 111.726 44.3032Z" fill="#F59A79"/>
<path d="M107.726 48.9131C107.831 48.9131 107.93 48.8579 107.985 48.7617C108.532 47.787 109.66 46.8689 110.958 47.0061C111.123 47.0245 111.265 46.9057 111.283 46.7444C111.302 46.5817 111.184 46.4374 111.021 46.4191C109.462 46.2535 108.113 47.3287 107.47 48.4745C107.39 48.616 107.441 48.7957 107.583 48.8763C107.629 48.9003 107.678 48.9131 107.726 48.9131Z" fill="#D8E7EC"/>
<path d="M110.847 49.418C110.986 50.1112 110.809 50.7308 110.452 50.8029C110.096 50.8737 109.695 50.3715 109.555 49.6783C109.416 48.9851 109.593 48.3655 109.95 48.2948C110.307 48.2226 110.709 48.7262 110.847 49.418Z" fill="#7C2E1F"/>
<path d="M108.342 54.9161C108.877 57.7384 112.074 59.0299 112.074 56.0903L108.342 54.9161Z" fill="white"/>
<path d="M112.783 48.8252C113.567 51.5399 115.85 51.5526 115.281 52.3802C114.505 53.5147 112.997 53.71 112.997 53.71L112.783 48.8252Z" fill="#F59A79"/>
<path d="M109.727 46.1801C111.55 46.1801 113.034 47.6626 113.034 49.4847C113.034 51.3068 111.55 52.7893 109.727 52.7893C107.903 52.7893 106.42 51.3068 106.42 49.4847C106.42 47.6626 107.903 46.1801 109.727 46.1801ZM109.727 53.3467C111.857 53.3467 113.59 51.6137 113.59 49.4847C113.59 47.3542 111.857 45.6227 109.727 45.6227C107.596 45.6227 105.863 47.3542 105.863 49.4847C105.863 51.6137 107.596 53.3467 109.727 53.3467Z" fill="#7C2E1F"/>
<path d="M98.2862 54.2197C98.3386 54.2197 98.3924 54.2042 98.4391 54.173C98.5679 54.0882 98.6018 53.9156 98.5169 53.7869L98.398 53.6072C97.9691 52.972 97.4356 52.1798 97.6351 51.4682C97.8772 50.611 99.0222 50.2262 99.9917 49.9857C101.935 49.5047 104.031 49.3774 105.738 49.6349C105.895 49.6589 106.033 49.5528 106.055 49.4014C106.079 49.2487 105.974 49.1072 105.822 49.0846C104.044 48.8158 101.87 48.9473 99.8573 49.4453C98.7405 49.7211 97.42 50.1852 97.1001 51.3183C96.8298 52.276 97.4426 53.187 97.9352 53.9184L98.0527 54.0952C98.1064 54.1759 98.1956 54.2197 98.2862 54.2197Z" fill="#7C2E1F"/>
<path d="M75.0422 62.0958C75.2092 58.8124 77.2417 57.0314 80.3442 56.566C79.3209 54.4567 78.4037 51.6925 79.819 49.5479C81.049 47.682 83.6689 47.2449 84.8521 45.3577C86.1076 43.3532 85.373 41.9753 85.2711 40.0075C85.0758 36.1852 90.9694 32.5438 94.7696 34.0335C95.4363 32.2298 97.2975 32.0332 99.5267 32.1987C103.262 32.4774 107.584 35.127 110.449 37.5729C111.655 38.6028 113.713 40.6286 113.034 42.4464C112.092 44.9602 106.871 45.3308 104.649 44.9843C104.564 46.4965 104.171 47.607 102.81 48.3667C101.715 48.9792 99.3371 48.8745 98.8006 50.2085C98.2897 51.4803 99.9343 53.2939 100.158 54.5246C100.515 56.474 99.5536 56.4514 98.5997 57.6934C97.8014 58.736 98.0321 58.6752 98.7936 59.9611C99.6329 61.3758 100.464 62.8201 100.205 64.5347C99.1969 71.2061 88.3353 73.3437 83.1876 72.0238C78.6924 70.8723 74.7945 66.9778 75.0422 62.0958Z" fill="#D8E7EC"/>
<path d="M89.3544 70.1182C91.5299 70.1182 93.3741 69.4038 93.8241 66.3991C94.1412 64.2799 93.6841 62.2273 92.3833 59.9369C91.6233 58.5959 91.3954 57.7004 91.6686 57.1176C92.0621 56.2773 93.5793 56.0014 95.5028 55.6534C96.5643 55.4596 97.1588 55.1427 97.3725 54.6532C97.6655 53.9813 97.1475 53.1679 96.5997 52.3078C96.2912 51.8254 95.9741 51.3274 95.7732 50.8266C95.5113 50.1702 95.4887 49.6327 95.708 49.1842C96.1893 48.1982 97.8226 47.7243 99.4022 47.2674C101.198 46.7454 103.057 46.2064 103.568 44.8653C103.885 44.0321 103.647 43.0022 102.839 41.7177C102.779 41.6243 102.655 41.5946 102.56 41.6555C102.466 41.7135 102.437 41.8394 102.496 41.9327C103.232 43.1026 103.459 44.0151 103.19 44.721C102.751 45.8754 100.992 46.386 99.2889 46.8783C97.548 47.3834 95.9047 47.8601 95.3457 49.0074C95.0739 49.5633 95.091 50.2084 95.3981 50.9766C95.6132 51.5127 95.9415 52.0262 96.2586 52.5242C96.7469 53.2924 97.2097 54.0167 97.0017 54.4906C96.8516 54.8357 96.3223 55.0932 95.4306 55.2559C93.3132 55.6407 91.7832 55.9179 91.302 56.9464C90.9651 57.6678 91.1902 58.6524 92.0323 60.1364C93.2849 62.3433 93.7279 64.3139 93.4236 66.3396C92.9495 69.5141 90.8519 69.947 87.8485 69.6216C87.7381 69.6117 87.6376 69.6909 87.6263 69.8013C87.6135 69.9116 87.6942 70.0121 87.8046 70.0234C88.3297 70.0814 88.8506 70.1182 89.3544 70.1182Z" fill="#95A6B3"/>
<path d="M93.1343 68.1797C94.3671 68.1797 95.5928 67.7666 96.4237 67.0168C97.0266 66.4736 97.6819 65.5145 97.3819 64.0305C97.1328 62.8026 96.3925 61.777 95.6763 60.7853C95.1626 60.0738 94.6318 59.3381 94.3006 58.5459C94.2567 58.4427 94.1393 58.3946 94.0359 58.437C93.9326 58.4809 93.8845 58.5983 93.9269 58.7016C94.2765 59.5376 94.8214 60.2916 95.3494 61.0216C96.0712 62.0231 96.7534 62.9681 96.9856 64.1112C97.2488 65.407 96.6784 66.2444 96.1533 66.7169C95.0889 67.6775 93.2235 68.0354 91.7176 67.5671C91.61 67.5332 91.4967 67.5926 91.4642 67.6987C91.4302 67.8062 91.4897 67.9194 91.5972 67.9519C92.0898 68.1061 92.6134 68.1797 93.1343 68.1797Z" fill="#95A6B3"/>
<path d="M85.1735 56.8613C85.216 56.8613 85.257 56.8486 85.2938 56.8217C85.383 56.7552 85.4028 56.6279 85.3349 56.5388C84.2253 55.0435 82.6103 52.3514 84.2535 51.115C84.7135 50.7684 85.3929 50.6171 86.0497 50.4714C87.3094 50.1927 88.7374 49.8758 88.7643 48.0594C88.7742 47.369 88.5478 46.7607 88.3482 46.2232C88.1486 45.6884 87.9915 45.2669 88.1571 45.0038C88.3227 44.742 88.8266 44.578 89.6985 44.5001C89.9334 44.4789 90.3015 44.4832 90.7275 44.4888C92.2759 44.5101 94.3947 44.5398 95.0684 43.5438C95.3345 43.1506 95.3416 42.6441 95.0896 42.0415C95.0472 41.9396 94.9283 41.8901 94.825 41.934C94.7231 41.9764 94.6735 42.0952 94.7174 42.1985C94.9155 42.6738 94.9212 43.0402 94.7344 43.3175C94.1824 44.1323 92.1074 44.1026 90.7331 44.0857C90.2972 44.0786 89.9193 44.0743 89.6617 44.097C88.6285 44.1903 88.058 44.4025 87.816 44.7887C87.5428 45.2202 87.7396 45.7507 87.9689 46.3646C88.1571 46.8683 88.3695 47.4398 88.3595 48.0537C88.3383 49.5504 87.2371 49.7938 85.9619 50.0781C85.2627 50.2323 84.5409 50.3936 84.0101 50.7925C82.565 51.8804 82.9103 53.95 85.0108 56.7793C85.0504 56.833 85.1112 56.8613 85.1735 56.8613Z" fill="#95A6B3"/>
<path d="M83.4698 68.7441C84.5978 68.7441 85.6579 68.3933 86.4067 67.7313C87.1568 67.0664 87.4314 66.2812 87.178 65.5202C86.8398 64.5045 85.5674 63.6557 84.2185 63.5439C84.1095 63.5326 84.0104 63.6161 84.0005 63.7278C83.992 63.8396 84.0741 63.9372 84.186 63.9457C85.3834 64.0447 86.5044 64.7761 86.7945 65.6489C86.9969 66.2544 86.769 66.8697 86.1377 67.4285C85.1229 68.3282 83.4542 68.5899 81.8874 68.0934C80.5074 67.6577 79.5605 66.7509 79.2888 65.6079C78.516 62.3485 81.5576 61.2069 84.2398 60.2011C84.6346 60.0526 85.0153 59.9097 85.3664 59.7668C86.5383 59.2844 87.2007 58.6874 87.3903 57.9433C87.6748 56.8229 86.8058 55.5582 85.9184 54.4675C85.8476 54.3812 85.7216 54.3685 85.6339 54.4392C85.5476 54.51 85.5348 54.6359 85.6056 54.7236C86.7733 56.158 87.1894 57.0917 86.9983 57.8443C86.8426 58.4554 86.2581 58.9633 85.2121 59.3933C84.8653 59.5362 84.4889 59.6763 84.0982 59.8234C81.5421 60.7825 78.0404 62.0953 78.8953 65.7012C79.1968 66.9673 80.2682 68.0057 81.7657 68.4782C82.3304 68.6578 82.9079 68.7441 83.4698 68.7441Z" fill="#95A6B3"/>
<path d="M98.7341 45.7607C98.7384 45.7607 98.744 45.7607 98.7483 45.7593C98.8601 45.7508 98.9436 45.6547 98.9351 45.5429C98.9082 45.1765 99.0016 44.8936 99.2196 44.6814C99.957 43.9627 101.913 44.1551 103.207 44.2824C103.578 44.3192 103.897 44.3503 104.13 44.356C106.694 44.3999 109.273 44.2145 110.736 42.5481C111.487 41.6936 111.668 40.7133 111.26 39.7117C110.516 37.884 107.933 36.3618 106.121 36.2218C106.008 36.2105 105.913 36.2954 105.904 36.4071C105.895 36.5175 105.978 36.6151 106.09 36.6235C107.75 36.7523 110.206 38.1966 110.885 39.8631C111.238 40.726 111.085 41.5394 110.434 42.2821C109.078 43.8241 106.608 43.9995 104.137 43.9514C103.921 43.9472 103.609 43.9175 103.246 43.8807C101.879 43.7463 99.8098 43.5426 98.9379 44.3914C98.6336 44.6884 98.4963 45.086 98.5317 45.5726C98.5402 45.6787 98.6294 45.7607 98.7341 45.7607Z" fill="#95A6B3"/>
<path d="M97.9498 42.5176C97.9668 42.5176 97.9838 42.5162 98.0008 42.5119C98.1084 42.4836 98.1735 42.3733 98.1466 42.2658C98.0815 42.0125 98.1041 41.823 98.2188 41.6886C98.6377 41.1892 100.241 41.3137 101.657 41.424C103.248 41.5485 104.751 41.6645 105.405 41.1157C106.019 40.5993 106.26 39.9472 106.101 39.2271C105.814 37.9299 104.244 36.6553 103.016 36.3257C102.907 36.2959 102.798 36.3596 102.768 36.4671C102.738 36.5761 102.802 36.6864 102.911 36.7147C104.025 37.016 105.457 38.1902 105.706 39.3148C105.832 39.8863 105.644 40.3885 105.144 40.8059C104.618 41.2501 103.129 41.134 101.688 41.0209C100.029 40.8921 98.4622 40.7705 97.9088 41.4283C97.7078 41.6674 97.6569 41.9814 97.7546 42.3662C97.7786 42.4567 97.8607 42.5176 97.9498 42.5176Z" fill="#95A6B3"/>
<path d="M87.4343 43.4023C87.4782 43.4023 87.5221 43.3882 87.5589 43.3585C88.2453 42.8167 89.0266 42.8153 89.781 42.8138C90.4689 42.811 91.12 42.8096 91.5616 42.3527C91.9409 41.9594 92.0994 41.2917 92.064 40.2533C92.0527 39.9393 91.9791 39.5913 91.8998 39.2221C91.7172 38.369 91.529 37.4863 92.0895 36.9416C92.8099 36.2414 94.7773 36.5385 95.9237 36.9091C96.0299 36.9431 96.1432 36.8851 96.1771 36.779C96.2125 36.6729 96.1544 36.5597 96.0469 36.5243C94.9811 36.1792 92.7236 35.7618 91.8078 36.6516C91.0874 37.3533 91.3082 38.3917 91.505 39.3069C91.5786 39.6578 91.6493 39.9888 91.6592 40.2675C91.6918 41.1771 91.5644 41.767 91.2714 42.0712C90.9487 42.4064 90.4067 42.4078 89.7796 42.4093C88.9941 42.4107 88.1052 42.4135 87.3084 43.0416C87.222 43.1109 87.2065 43.2382 87.2758 43.3259C87.3154 43.3755 87.3749 43.4023 87.4343 43.4023Z" fill="#95A6B3"/>
<path d="M143.777 116.941C128.271 112.65 109.673 107.188 105.49 88.7298C104.348 83.6908 101.179 77.9742 96.2605 80.1514C90.1814 82.8434 92.1941 91.4431 94.2705 95.7832C102.318 112.601 122.267 120.899 142.937 123.332L143.777 116.941Z" fill="#F59A79"/>
<path d="M152.694 117.868C154.009 117.641 155.103 117.348 155.72 117.032C156.132 116.821 156.295 116.316 156.083 115.906C155.873 115.495 155.372 115.333 154.957 115.545C153.616 116.232 148.398 116.966 144.985 116.507C144.526 116.442 144.106 116.764 144.043 117.223C143.981 117.679 144.302 118.101 144.761 118.162C147.077 118.476 150.263 118.286 152.694 117.868Z" fill="#F59A79"/>
<path d="M154.597 119.479C155.819 119.269 156.839 119.011 157.288 118.764C157.693 118.54 157.837 118.031 157.614 117.628C157.39 117.223 156.88 117.074 156.477 117.301C155.612 117.779 150.322 118.526 148.514 118.188C148.06 118.101 147.624 118.401 147.539 118.855C147.453 119.31 147.753 119.745 148.206 119.83C149.554 120.083 152.401 119.857 154.597 119.479Z" fill="#F59A79"/>
<path d="M155.569 121.409C156.065 121.323 156.462 121.219 156.706 121.1C157.122 120.898 157.293 120.397 157.091 119.981C156.887 119.568 156.386 119.394 155.971 119.598C155.271 119.94 150.688 120.245 149.085 119.711C148.649 119.566 148.174 119.802 148.027 120.239C147.881 120.679 148.119 121.151 148.556 121.297C150.039 121.792 153.586 121.75 155.569 121.409Z" fill="#F59A79"/>
<path d="M154.753 123.536C154.887 123.512 155.005 123.483 155.1 123.452C155.537 123.305 155.772 122.83 155.623 122.391C155.476 121.954 155.005 121.718 154.565 121.868C153.846 122.111 150.426 121.909 149.427 121.258C149.039 121.006 148.521 121.115 148.269 121.502C148.017 121.889 148.126 122.407 148.512 122.659C149.868 123.544 153.335 123.779 154.753 123.536Z" fill="#F59A79"/>
<path d="M145.444 113.553C146.435 113.238 147.573 113.057 148.351 112.308C148.683 111.99 149.215 112 149.533 112.335C149.853 112.668 149.842 113.198 149.508 113.517C148.913 114.087 148.254 114.408 147.583 114.645C147.301 114.849 146.742 115.319 146.923 115.756C147.153 116.312 148.453 116.909 150.673 116.469L151.464 116.313L151.648 117.098C152.254 119.672 152.053 121.535 151.033 122.791C150.38 123.597 149.433 124.105 148.166 124.323C146.561 124.599 143.071 124.026 142.238 122.891C141.393 121.737 140.786 120.369 140.848 118.481C140.912 116.483 142.889 114.364 145.444 113.553Z" fill="#F59A79"/>
<path d="M139.368 115.221C140.175 114.723 142.02 114.037 142.25 115.068C142.455 115.991 141.991 116.358 140.931 116.911C140.818 116.989 140.818 116.984 140.932 116.894C142.775 117.169 142.765 118.422 141.037 118.944C142.505 120.268 141.916 121.987 139.957 121.143C141.074 122.021 141.567 123.473 140.528 124.306C139.356 125.245 137.827 123.521 136.484 122.782L139.368 115.221Z" fill="#E5F6FB"/>
<path d="M138.575 113.885C141.773 115.641 139.979 123.215 134.678 124.205C122.574 126.468 92.6994 108.645 88.609 87.4341C86.5666 76.8469 98.5308 71.177 103.377 80.8079C111.749 102.226 125.017 106.446 138.575 113.885Z" fill="#59C59B"/>
<path d="M99.8383 50.2446C99.3415 50.1639 98.9636 50.1753 98.6819 50.2799C97.8652 50.5855 97.3486 51.0976 97.1448 51.8021C96.8433 52.8475 97.2779 54.3103 98.2785 55.6202C98.9735 56.5298 99.7859 57.3801 100.695 58.1482C101.808 56.933 103.639 54.289 104.595 51.7356C103.939 51.556 103.235 51.3041 102.55 51.0608C101.605 50.7227 100.627 50.3733 99.8383 50.2446ZM100.727 58.7197L100.579 58.5966C99.5835 57.7733 98.6989 56.8581 97.9459 55.872C96.8504 54.439 96.4003 52.8744 96.7429 51.6875C96.9821 50.8599 97.602 50.2375 98.5361 49.8881C98.8871 49.7579 99.3358 49.7395 99.9062 49.8329C100.731 49.9659 101.728 50.321 102.692 50.6661C103.445 50.9349 104.222 51.2136 104.921 51.389L105.145 51.4442L105.067 51.6606C104.079 54.4418 102.014 57.3815 100.863 58.5797L100.727 58.7197Z" fill="white"/>
<path d="M114.555 50.6422C114.48 50.5531 114.349 50.5446 114.262 50.6167C113.326 51.3962 109.813 52.1898 105.904 51.5928L105.827 51.5801C105.56 51.5376 105.263 51.474 104.919 51.3891C104.803 51.3566 104.708 51.4188 104.67 51.5207C103.703 54.2439 101.685 57.1184 100.558 58.2912C100.518 58.3336 100.497 58.3888 100.5 58.4482C100.504 58.5062 100.531 58.56 100.575 58.5967C103.424 60.9535 106.854 62.3243 110.136 63.4546C110.147 63.4575 110.16 63.4603 110.171 63.4617C110.235 63.473 110.3 63.4532 110.348 63.4094C112.366 61.5251 114.933 58.5274 115.688 54.9385C116.021 53.3654 115.938 52.269 114.555 50.6422Z" fill="white"/>
<path d="M101.831 51.7489C102.784 53.6785 102.518 55.758 101.234 56.3904C99.9517 57.0213 98.14 55.9674 97.1889 54.035C96.2363 52.1026 96.5038 50.0259 97.7862 49.3935C99.0685 48.7612 100.88 49.8165 101.831 51.7489Z" fill="#F59A79"/>
<defs>
<filter id="filter0_b_1_27379" x="-30.8099" y="165.127" width="360.1" height="119.738" filterUnits="userSpaceOnUse" color-interpolation-filters="sRGB">
<feFlood flood-opacity="0" result="BackgroundImageFix"/>
<feGaussianBlur in="BackgroundImageFix" stdDeviation="22.4323"/>
<feComposite in2="SourceAlpha" operator="in" result="effect1_backgroundBlur_1_27379"/>
<feBlend mode="normal" in="SourceGraphic" in2="effect1_backgroundBlur_1_27379" result="shape"/>
</filter>
<filter id="filter1_b_1_27379" x="-41.381" y="-25.631" width="198.293" height="287.969" filterUnits="userSpaceOnUse" color-interpolation-filters="sRGB">
<feFlood flood-opacity="0" result="BackgroundImageFix"/>
<feGaussianBlur in="BackgroundImageFix" stdDeviation="28.4718"/>
<feComposite in2="SourceAlpha" operator="in" result="effect1_backgroundBlur_1_27379"/>
<feBlend mode="normal" in="SourceGraphic" in2="effect1_backgroundBlur_1_27379" result="shape"/>
</filter>
<filter id="filter2_d_1_27379" x="-6.4336" y="166.78" width="128.406" height="81.4629" filterUnits="userSpaceOnUse" color-interpolation-filters="sRGB">
<feFlood flood-opacity="0" result="BackgroundImageFix"/>
<feColorMatrix in="SourceAlpha" type="matrix" values="0 0 0 0 0 0 0 0 0 0 0 0 0 0 0 0 0 0 127 0" result="hardAlpha"/>
<feMorphology radius="8" operator="erode" in="SourceAlpha" result="effect1_dropShadow_1_27379"/>
<feOffset dy="20"/>
<feGaussianBlur stdDeviation="15"/>
<feComposite in2="hardAlpha" operator="out"/>
<feColorMatrix type="matrix" values="0 0 0 0 0.960784 0 0 0 0 0.486275 0 0 0 0 0.117647 0 0 0 0.25 0"/>
<feBlend mode="normal" in2="BackgroundImageFix" result="effect1_dropShadow_1_27379"/>
<feBlend mode="normal" in="SourceGraphic" in2="effect1_dropShadow_1_27379" result="shape"/>
</filter>
<filter id="filter3_d_1_27379" x="17.2852" y="134.917" width="48.3867" height="51.4111" filterUnits="userSpaceOnUse" color-interpolation-filters="sRGB">
<feFlood flood-opacity="0" result="BackgroundImageFix"/>
<feColorMatrix in="SourceAlpha" type="matrix" values="0 0 0 0 0 0 0 0 0 0 0 0 0 0 0 0 0 0 127 0" result="hardAlpha"/>
<feMorphology radius="8" operator="erode" in="SourceAlpha" result="effect1_dropShadow_1_27379"/>
<feOffset dy="20"/>
<feGaussianBlur stdDeviation="15"/>
<feComposite in2="hardAlpha" operator="out"/>
<feColorMatrix type="matrix" values="0 0 0 0 0.960784 0 0 0 0 0.486275 0 0 0 0 0.117647 0 0 0 0.25 0"/>
<feBlend mode="normal" in2="BackgroundImageFix" result="effect1_dropShadow_1_27379"/>
<feBlend mode="normal" in="SourceGraphic" in2="effect1_dropShadow_1_27379" result="shape"/>
</filter>
<filter id="filter4_d_1_27379" x="0.742186" y="132.085" width="59.8398" height="52.2119" filterUnits="userSpaceOnUse" color-interpolation-filters="sRGB">
<feFlood flood-opacity="0" result="BackgroundImageFix"/>
<feColorMatrix in="SourceAlpha" type="matrix" values="0 0 0 0 0 0 0 0 0 0 0 0 0 0 0 0 0 0 127 0" result="hardAlpha"/>
<feMorphology radius="8" operator="erode" in="SourceAlpha" result="effect1_dropShadow_1_27379"/>
<feOffset dy="20"/>
<feGaussianBlur stdDeviation="15"/>
<feComposite in2="hardAlpha" operator="out"/>
<feColorMatrix type="matrix" values="0 0 0 0 0.960784 0 0 0 0 0.486275 0 0 0 0 0.117647 0 0 0 0.25 0"/>
<feBlend mode="normal" in2="BackgroundImageFix" result="effect1_dropShadow_1_27379"/>
<feBlend mode="normal" in="SourceGraphic" in2="effect1_dropShadow_1_27379" result="shape"/>
</filter>
<filter id="filter5_d_1_27379" x="13.2344" y="136.951" width="51.0547" height="47.3457" filterUnits="userSpaceOnUse" color-interpolation-filters="sRGB">
<feFlood flood-opacity="0" result="BackgroundImageFix"/>
<feColorMatrix in="SourceAlpha" type="matrix" values="0 0 0 0 0 0 0 0 0 0 0 0 0 0 0 0 0 0 127 0" result="hardAlpha"/>
<feMorphology radius="8" operator="erode" in="SourceAlpha" result="effect1_dropShadow_1_27379"/>
<feOffset dy="20"/>
<feGaussianBlur stdDeviation="15"/>
<feComposite in2="hardAlpha" operator="out"/>
<feColorMatrix type="matrix" values="0 0 0 0 0.960784 0 0 0 0 0.486275 0 0 0 0 0.117647 0 0 0 0.25 0"/>
<feBlend mode="normal" in2="BackgroundImageFix" result="effect1_dropShadow_1_27379"/>
<feBlend mode="normal" in="SourceGraphic" in2="effect1_dropShadow_1_27379" result="shape"/>
</filter>
<filter id="filter6_bd_1_27379" x="93.5408" y="67.2156" width="134.411" height="137.962" filterUnits="userSpaceOnUse" color-interpolation-filters="sRGB">
<feFlood flood-opacity="0" result="BackgroundImageFix"/>
<feGaussianBlur in="BackgroundImageFix" stdDeviation="28.4718"/>
<feComposite in2="SourceAlpha" operator="in" result="effect1_backgroundBlur_1_27379"/>
<feColorMatrix in="SourceAlpha" type="matrix" values="0 0 0 0 0 0 0 0 0 0 0 0 0 0 0 0 0 0 127 0" result="hardAlpha"/>
<feOffset dy="28.4718"/>
<feGaussianBlur stdDeviation="14.2359"/>
<feColorMatrix type="matrix" values="0 0 0 0 1 0 0 0 0 1 0 0 0 0 1 0 0 0 0.1 0"/>
<feBlend mode="normal" in2="effect1_backgroundBlur_1_27379" result="effect2_dropShadow_1_27379"/>
<feBlend mode="normal" in="SourceGraphic" in2="effect2_dropShadow_1_27379" result="shape"/>
</filter>
<filter id="filter7_d_1_27379" x="127.371" y="77.2686" width="68.582" height="60.3633" filterUnits="userSpaceOnUse" color-interpolation-filters="sRGB">
<feFlood flood-opacity="0" result="BackgroundImageFix"/>
<feColorMatrix in="SourceAlpha" type="matrix" values="0 0 0 0 0 0 0 0 0 0 0 0 0 0 0 0 0 0 127 0" result="hardAlpha"/>
<feMorphology radius="8" operator="erode" in="SourceAlpha" result="effect1_dropShadow_1_27379"/>
<feOffset dy="20"/>
<feGaussianBlur stdDeviation="15"/>
<feComposite in2="hardAlpha" operator="out"/>
<feColorMatrix type="matrix" values="0 0 0 0 0.960784 0 0 0 0 0.486275 0 0 0 0 0.117647 0 0 0 0.25 0"/>
<feBlend mode="normal" in2="BackgroundImageFix" result="effect1_dropShadow_1_27379"/>
<feBlend mode="normal" in="SourceGraphic" in2="effect1_dropShadow_1_27379" result="shape"/>
</filter>
<filter id="filter8_d_1_27379" x="186.348" y="36.5654" width="70.9414" height="63.5742" filterUnits="userSpaceOnUse" color-interpolation-filters="sRGB">
<feFlood flood-opacity="0" result="BackgroundImageFix"/>
<feColorMatrix in="SourceAlpha" type="matrix" values="0 0 0 0 0 0 0 0 0 0 0 0 0 0 0 0 0 0 127 0" result="hardAlpha"/>
<feMorphology radius="8" operator="erode" in="SourceAlpha" result="effect1_dropShadow_1_27379"/>
<feOffset dy="20"/>
<feGaussianBlur stdDeviation="15"/>
<feComposite in2="hardAlpha" operator="out"/>
<feColorMatrix type="matrix" values="0 0 0 0 0.960784 0 0 0 0 0.486275 0 0 0 0 0.117647 0 0 0 0.25 0"/>
<feBlend mode="normal" in2="BackgroundImageFix" result="effect1_dropShadow_1_27379"/>
<feBlend mode="normal" in="SourceGraphic" in2="effect1_dropShadow_1_27379" result="shape"/>
</filter>
<filter id="filter9_d_1_27379" x="216.527" y="74.0527" width="70.9375" height="64.3154" filterUnits="userSpaceOnUse" color-interpolation-filters="sRGB">
<feFlood flood-opacity="0" result="BackgroundImageFix"/>
<feColorMatrix in="SourceAlpha" type="matrix" values="0 0 0 0 0 0 0 0 0 0 0 0 0 0 0 0 0 0 127 0" result="hardAlpha"/>
<feMorphology radius="8" operator="erode" in="SourceAlpha" result="effect1_dropShadow_1_27379"/>
<feOffset dy="20"/>
<feGaussianBlur stdDeviation="15"/>
<feComposite in2="hardAlpha" operator="out"/>
<feColorMatrix type="matrix" values="0 0 0 0 0.960784 0 0 0 0 0.486275 0 0 0 0 0.117647 0 0 0 0.25 0"/>
<feBlend mode="normal" in2="BackgroundImageFix" result="effect1_dropShadow_1_27379"/>
<feBlend mode="normal" in="SourceGraphic" in2="effect1_dropShadow_1_27379" result="shape"/>
</filter>
<filter id="filter10_d_1_27379" x="227.242" y="100.616" width="62.4297" height="73.6543" filterUnits="userSpaceOnUse" color-interpolation-filters="sRGB">
<feFlood flood-opacity="0" result="BackgroundImageFix"/>
<feColorMatrix in="SourceAlpha" type="matrix" values="0 0 0 0 0 0 0 0 0 0 0 0 0 0 0 0 0 0 127 0" result="hardAlpha"/>
<feMorphology radius="8" operator="erode" in="SourceAlpha" result="effect1_dropShadow_1_27379"/>
<feOffset dy="20"/>
<feGaussianBlur stdDeviation="15"/>
<feComposite in2="hardAlpha" operator="out"/>
<feColorMatrix type="matrix" values="0 0 0 0 0.960784 0 0 0 0 0.486275 0 0 0 0 0.117647 0 0 0 0.25 0"/>
<feBlend mode="normal" in2="BackgroundImageFix" result="effect1_dropShadow_1_27379"/>
<feBlend mode="normal" in="SourceGraphic" in2="effect1_dropShadow_1_27379" result="shape"/>
</filter>
<linearGradient id="paint0_linear_1_27379" x1="101.472" y1="209.869" x2="-18.8657" y2="145.165" gradientUnits="userSpaceOnUse">
<stop stop-color="#F57C1E"/>
<stop offset="1" stop-color="#F57C1E" stop-opacity="0"/>
</linearGradient>
<linearGradient id="paint1_linear_1_27379" x1="43.7497" y1="145.045" x2="35.8485" y2="143.93" gradientUnits="userSpaceOnUse">
<stop stop-color="#F57C1E"/>
<stop offset="1" stop-color="#F57C1E" stop-opacity="0"/>
</linearGradient>
<linearGradient id="paint2_linear_1_27379" x1="38.8633" y1="143.092" x2="14.8418" y2="132.035" gradientUnits="userSpaceOnUse">
<stop stop-color="#F57C1E"/>
<stop offset="1" stop-color="#F57C1E" stop-opacity="0"/>
</linearGradient>
<linearGradient id="paint3_linear_1_27379" x1="42.4143" y1="142.621" x2="32.0689" y2="137.415" gradientUnits="userSpaceOnUse">
<stop stop-color="#F57C1E"/>
<stop offset="1" stop-color="#F57C1E" stop-opacity="0"/>
</linearGradient>
<linearGradient id="paint4_linear_1_27379" x1="158.583" y1="123.619" x2="151.029" y2="183.541" gradientUnits="userSpaceOnUse">
<stop stop-color="#F57C1E"/>
<stop offset="0.997416" stop-color="#F57C1E" stop-opacity="0"/>
</linearGradient>
<linearGradient id="paint5_linear_1_27379" x1="153.806" y1="140.933" x2="171.47" y2="140.933" gradientUnits="userSpaceOnUse">
<stop offset="0.00651336" stop-color="#9CA6BD" stop-opacity="0"/>
<stop offset="1" stop-color="#929EBD"/>
</linearGradient>
<linearGradient id="paint6_linear_1_27379" x1="153.806" y1="144.266" x2="171.47" y2="144.266" gradientUnits="userSpaceOnUse">
<stop offset="0.00651336" stop-color="#9CA6BD" stop-opacity="0"/>
<stop offset="1" stop-color="#929EBD"/>
</linearGradient>
<linearGradient id="paint7_linear_1_27379" x1="174.39" y1="97.2154" x2="134.358" y2="82.8642" gradientUnits="userSpaceOnUse">
<stop stop-color="#F57C1E"/>
<stop offset="1" stop-color="#F57C1E" stop-opacity="0"/>
</linearGradient>
<linearGradient id="paint8_linear_1_27379" x1="265.943" y1="98.3342" x2="220.943" y2="84.0956" gradientUnits="userSpaceOnUse">
<stop stop-color="#F57C1E"/>
<stop offset="1" stop-color="#F57C1E" stop-opacity="0"/>
</linearGradient>
<linearGradient id="paint9_linear_1_27379" x1="267.999" y1="135.14" x2="234.857" y2="130.225" gradientUnits="userSpaceOnUse">
<stop stop-color="#F57C1E"/>
<stop offset="1" stop-color="#F57C1E" stop-opacity="0"/>
</linearGradient>
</defs>
</svg>
