<svg width="18" height="18" viewBox="0 0 18 18" fill="none" xmlns="http://www.w3.org/2000/svg">
<path d="M8.805 13.3125H13.245C13.1775 13.3725 13.11 13.425 13.0425 13.485L9.84 15.885C8.7825 16.6725 7.0575 16.6725 5.9925 15.885L2.78251 13.485C2.07751 12.96 1.5 11.7975 1.5 10.92V5.36252C1.5 4.44752 2.19751 3.43502 3.05251 3.11252L6.7875 1.71002C7.4025 1.47752 8.4225 1.47752 9.0375 1.71002L12.765 3.11252C13.4775 3.38252 14.085 4.13252 14.2725 4.89752H8.7975C8.6325 4.89752 8.4825 4.90503 8.34 4.90503C6.9525 4.98753 6.59249 5.49001 6.59249 7.07251V11.145C6.59999 12.87 7.0425 13.3125 8.805 13.3125Z" stroke="#888AA0" stroke-width="1.5" stroke-linecap="round" stroke-linejoin="round"/>
<path d="M6.60156 8.41504H16.5016" stroke="#888AA0" stroke-width="1.5" stroke-miterlimit="10" stroke-linecap="round" stroke-linejoin="round"/>
<path d="M16.5016 7.06483V11.2273C16.4866 12.8923 16.0291 13.3048 14.2966 13.3048H8.80656C7.04406 13.3048 6.60156 12.8623 6.60156 11.1298V7.05732C6.60156 5.48232 6.96156 4.97981 8.34906 4.88981C8.49156 4.88981 8.64156 4.88232 8.80656 4.88232H14.2966C16.0591 4.88982 16.5016 5.32483 16.5016 7.06483Z" stroke="#888AA0" stroke-width="1.5" stroke-linecap="round" stroke-linejoin="round"/>
<path d="M8.48828 11.4448H9.48577" stroke="#888AA0" stroke-width="1.5" stroke-miterlimit="10" stroke-linecap="round" stroke-linejoin="round"/>
<path d="M11.0625 11.4448H13.515" stroke="#888AA0" stroke-width="1.5" stroke-miterlimit="10" stroke-linecap="round" stroke-linejoin="round"/>
</svg>
