<svg width="20" height="20" viewBox="0 0 20 20" fill="none" xmlns="http://www.w3.org/2000/svg">
<g id="vuesax/linear/security-card">
<g id="vuesax/linear/security-card_2">
<g id="Group">
<g id="Group_2">
<path id="Vector" d="M9.78317 14.7915H14.7165C14.6415 14.8582 14.5665 14.9165 14.4915 14.9832L10.9332 17.6498C9.75817 18.5248 7.84151 18.5248 6.65817 17.6498L3.09151 14.9832C2.30818 14.3998 1.6665 13.1082 1.6665 12.1332V5.95816C1.6665 4.9415 2.44151 3.8165 3.39151 3.45816L7.54151 1.89984C8.22484 1.6415 9.35817 1.6415 10.0415 1.89984L14.1832 3.45816C14.9748 3.75816 15.6498 4.5915 15.8582 5.4415H9.77483C9.5915 5.4415 9.42483 5.44984 9.2665 5.44984C7.72483 5.54151 7.32483 6.09983 7.32483 7.85816V12.3832C7.33316 14.2998 7.82484 14.7915 9.78317 14.7915Z" stroke="#888AA0" stroke-width="1.5" stroke-linecap="round" stroke-linejoin="round"/>
</g>
<path id="Vector_2" d="M7.33301 9.3497H18.333" stroke="#888AA0" stroke-width="1.5" stroke-miterlimit="10" stroke-linecap="round" stroke-linejoin="round"/>
<path id="Vector_3" d="M18.333 7.84975V12.4747C18.3163 14.3247 17.808 14.7831 15.883 14.7831H9.78301C7.82468 14.7831 7.33301 14.2914 7.33301 12.3664V7.84141C7.33301 6.09141 7.73301 5.53306 9.27468 5.43306C9.43301 5.43306 9.59968 5.42474 9.78301 5.42474H15.883C17.8413 5.43308 18.333 5.91641 18.333 7.84975Z" stroke="#888AA0" stroke-width="1.5" stroke-linecap="round" stroke-linejoin="round"/>
<path id="Vector_4" d="M9.43311 12.7164H10.5414" stroke="#888AA0" stroke-width="1.5" stroke-miterlimit="10" stroke-linecap="round" stroke-linejoin="round"/>
<path id="Vector_5" d="M12.2915 12.7164H15.0165" stroke="#888AA0" stroke-width="1.5" stroke-miterlimit="10" stroke-linecap="round" stroke-linejoin="round"/>
</g>
</g>
</g>
</svg>
