<svg width="24" height="24" viewBox="0 0 24 24" fill="none" xmlns="http://www.w3.org/2000/svg">
<path opacity="0.4" d="M21.0486 11.7102V17.7002C21.0486 20.4602 18.8086 22.7002 16.0486 22.7002H7.30859C7.07859 22.7002 6.8486 22.6802 6.6286 22.6502C6.9986 22.4902 7.3286 22.2702 7.6286 22.0002C7.6686 21.9702 7.69858 21.9402 7.72858 21.9002C7.99858 21.6702 8.22858 21.3802 8.41858 21.0602C8.78858 20.4602 8.9986 19.7502 8.9986 19.0002C8.9986 17.9502 8.58859 17.0002 7.92859 16.2802C7.82859 16.1702 7.71857 16.0602 7.59857 15.9702C6.89857 15.3602 5.9986 15.0002 4.9986 15.0002C4.2886 15.0002 3.61857 15.1902 3.03857 15.5202C2.84857 15.6202 2.6686 15.7402 2.4986 15.8802C2.4286 15.9302 2.36859 15.9902 2.30859 16.0502V11.7802C3.06859 12.6002 4.1486 13.0702 5.3186 13.0702C6.5786 13.0702 7.78858 12.4402 8.54858 11.4302C9.22858 12.4402 10.3886 13.0702 11.6786 13.0702C12.9586 13.0702 14.0986 12.4702 14.7886 11.4702C15.5586 12.4602 16.7486 13.0702 17.9886 13.0702C19.1986 13.0702 20.2986 12.5802 21.0486 11.7102Z" fill="url(#paint0_linear_12_6070)"/>
<path d="M14.671 1.56982H8.671L7.93101 8.92981C7.87101 9.60981 7.97098 10.2498 8.22098 10.8298C8.80098 12.1898 10.161 13.0698 11.681 13.0698C13.221 13.0698 14.551 12.2098 15.151 10.8398C15.331 10.4098 15.441 9.90984 15.451 9.39984V9.20984L14.671 1.56982Z" fill="url(#paint1_linear_12_6070)"/>
<path opacity="0.6" d="M22.0392 8.59009L21.7592 5.81006C21.3392 2.79006 19.9692 1.56006 17.0392 1.56006H13.1992L13.9392 9.06006C13.9492 9.16006 13.9592 9.27008 13.9592 9.46008C14.0192 9.98008 14.1792 10.4601 14.4192 10.8901C15.1392 12.2101 16.5392 13.0601 17.9992 13.0601C19.3292 13.0601 20.5292 12.4701 21.2792 11.4301C21.8692 10.6401 22.1392 9.63009 22.0392 8.59009Z" fill="url(#paint2_linear_12_6070)"/>
<path opacity="0.6" d="M6.26934 1.56982C3.32934 1.56982 1.9693 2.79979 1.5393 5.84979L1.26934 8.59979C1.16934 9.66979 1.45934 10.7098 2.08934 11.5198C2.84934 12.5098 4.01933 13.0698 5.31932 13.0698C6.77933 13.0698 8.17933 12.2198 8.88933 10.9198C9.14933 10.4698 9.31931 9.94979 9.36931 9.40979L10.1493 1.57983H6.26934V1.56982Z" fill="url(#paint3_linear_12_6070)"/>
<path d="M7.92999 16.28C7.82999 16.17 7.71998 16.06 7.59998 15.97C6.89998 15.36 6 15 5 15C4.29 15 3.61998 15.19 3.03998 15.52C2.84998 15.62 2.67 15.74 2.5 15.88C1.58 16.61 1 17.74 1 19C1 19.75 1.21002 20.46 1.58002 21.06C1.67002 21.22 1.78002 21.37 1.90002 21.51C1.92002 21.54 1.94997 21.56 1.96997 21.59C2.68997 22.45 3.78 23 5 23C6.01 23 6.93001 22.63 7.63 22C7.67 21.97 7.69998 21.94 7.72998 21.9C7.99998 21.67 8.22998 21.38 8.41998 21.06C8.78998 20.46 9 19.75 9 19C9 17.95 8.58999 17 7.92999 16.28ZM6.5 19.73H5.75V20.51C5.75 20.92 5.41 21.26 5 21.26C4.59 21.26 4.25 20.92 4.25 20.51V19.73H3.5C3.09 19.73 2.75 19.39 2.75 18.98C2.75 18.57 3.09 18.23 3.5 18.23H4.25V17.52C4.25 17.11 4.59 16.77 5 16.77C5.41 16.77 5.75 17.11 5.75 17.52V18.23H6.5C6.91 18.23 7.25 18.57 7.25 18.98C7.25 19.39 6.91 19.73 6.5 19.73Z" fill="url(#paint4_linear_12_6070)"/>
<defs>
<linearGradient id="paint0_linear_12_6070" x1="1.33731" y1="5.43162" x2="34.8845" y2="19.388" gradientUnits="userSpaceOnUse">
<stop stop-color="#F57C1E"/>
<stop offset="1" stop-color="#F57C1E" stop-opacity="0"/>
</linearGradient>
<linearGradient id="paint1_linear_12_6070" x1="7.52343" y1="-4.55114" x2="22.9364" y2="-2.02385" gradientUnits="userSpaceOnUse">
<stop stop-color="#F57C1E"/>
<stop offset="1" stop-color="#F57C1E" stop-opacity="0"/>
</linearGradient>
<linearGradient id="paint2_linear_12_6070" x1="12.74" y1="-4.56091" x2="30.6799" y2="-1.10275" gradientUnits="userSpaceOnUse">
<stop stop-color="#F57C1E"/>
<stop offset="1" stop-color="#F57C1E" stop-opacity="0"/>
</linearGradient>
<linearGradient id="paint3_linear_12_6070" x1="0.788754" y1="-4.55114" x2="18.8018" y2="-1.0636" gradientUnits="userSpaceOnUse">
<stop stop-color="#F57C1E"/>
<stop offset="1" stop-color="#F57C1E" stop-opacity="0"/>
</linearGradient>
<linearGradient id="paint4_linear_12_6070" x1="0.585366" y1="10.7419" x2="16.3955" y2="14.6975" gradientUnits="userSpaceOnUse">
<stop stop-color="#F57C1E"/>
<stop offset="1" stop-color="#F57C1E" stop-opacity="0"/>
</linearGradient>
</defs>
</svg>
