<svg width="18" height="18" viewBox="0 0 18 18" fill="none" xmlns="http://www.w3.org/2000/svg">
<path d="M8 15H15.5" stroke="#888AA0" stroke-width="1.5" stroke-linecap="round" stroke-linejoin="round"/>
<path d="M8 10H15.5" stroke="#888AA0" stroke-width="1.5" stroke-linecap="round" stroke-linejoin="round"/>
<path d="M8 5H15.5" stroke="#888AA0" stroke-width="1.5" stroke-linecap="round" stroke-linejoin="round"/>
<path d="M4.108 4.2V3.813H4.831V6H4.399V4.2H4.108Z" fill="#888AA0"/>
<path d="M4.291 10.526C4.483 10.366 4.636 10.233 4.75 10.127C4.864 10.019 4.959 9.907 5.035 9.791C5.111 9.675 5.149 9.561 5.149 9.449C5.149 9.347 5.125 9.267 5.077 9.209C5.029 9.151 4.955 9.122 4.855 9.122C4.755 9.122 4.678 9.156 4.624 9.224C4.57 9.29 4.542 9.381 4.54 9.497H4.132C4.14 9.257 4.211 9.075 4.345 8.951C4.481 8.827 4.653 8.765 4.861 8.765C5.089 8.765 5.264 8.826 5.386 8.948C5.508 9.068 5.569 9.227 5.569 9.425C5.569 9.581 5.527 9.73 5.443 9.872C5.359 10.014 5.263 10.138 5.155 10.244C5.047 10.348 4.906 10.474 4.732 10.622H5.617V10.97H4.135V10.658L4.291 10.526Z" fill="#888AA0"/>
<path d="M4.165 14.389C4.175 14.189 4.245 14.035 4.375 13.927C4.507 13.817 4.68 13.762 4.894 13.762C5.04 13.762 5.165 13.788 5.269 13.84C5.373 13.89 5.451 13.959 5.503 14.047C5.557 14.133 5.584 14.231 5.584 14.341C5.584 14.467 5.551 14.574 5.485 14.662C5.421 14.748 5.344 14.806 5.254 14.836V14.848C5.37 14.884 5.46 14.948 5.524 15.04C5.59 15.132 5.623 15.25 5.623 15.394C5.623 15.514 5.595 15.621 5.539 15.715C5.485 15.809 5.404 15.883 5.296 15.937C5.19 15.989 5.062 16.015 4.912 16.015C4.686 16.015 4.502 15.958 4.36 15.844C4.218 15.73 4.143 15.562 4.135 15.34H4.543C4.547 15.438 4.58 15.517 4.642 15.577C4.706 15.635 4.793 15.664 4.903 15.664C5.005 15.664 5.083 15.636 5.137 15.58C5.193 15.522 5.221 15.448 5.221 15.358C5.221 15.238 5.183 15.152 5.107 15.1C5.031 15.048 4.913 15.022 4.753 15.022H4.666V14.677H4.753C5.037 14.677 5.179 14.582 5.179 14.392C5.179 14.306 5.153 14.239 5.101 14.191C5.051 14.143 4.978 14.119 4.882 14.119C4.788 14.119 4.715 14.145 4.663 14.197C4.613 14.247 4.584 14.311 4.576 14.389H4.165Z" fill="#888AA0"/>
</svg>
