<svg width="32" height="32" viewBox="0 0 32 32" fill="none" xmlns="http://www.w3.org/2000/svg">
<g id="vuesax/linear/empty-wallet">
<g id="vuesax/linear/empty-wallet_2">
<g id="Group">
<path id="Vector" d="M24.054 18.0666C23.494 18.6132 23.174 19.3999 23.254 20.2399C23.374 21.6799 24.694 22.7332 26.134 22.7332H28.6673V24.3199C28.6673 27.0799 26.414 29.3333 23.654 29.3333H8.34732C5.58732 29.3333 3.33398 27.0799 3.33398 24.3199V15.3466C3.33398 12.5866 5.58732 10.3333 8.34732 10.3333H23.654C26.414 10.3333 28.6673 12.5866 28.6673 15.3466V17.2666H25.974C25.2273 17.2666 24.5473 17.5599 24.054 18.0666Z" stroke="#7A63EC" stroke-width="2" stroke-linecap="round" stroke-linejoin="round"/>
<path id="Vector_2" d="M3.33398 16.5467V10.4535C3.33398 8.86681 4.30732 7.45341 5.78732 6.89341L16.374 2.89341C18.0273 2.26675 19.8007 3.49345 19.8007 5.26679V10.3334" stroke="#7A63EC" stroke-width="2" stroke-linecap="round" stroke-linejoin="round"/>
</g>
<path id="Vector_3" d="M30.0791 18.6268V21.3735C30.0791 22.1069 29.4924 22.7068 28.7457 22.7335H26.1324C24.6924 22.7335 23.3724 21.6802 23.2524 20.2402C23.1724 19.4002 23.4924 18.6135 24.0524 18.0668C24.5457 17.5601 25.2257 17.2668 25.9724 17.2668H28.7457C29.4924 17.2935 30.0791 17.8935 30.0791 18.6268Z" stroke="#7A63EC" stroke-width="2" stroke-linecap="round" stroke-linejoin="round"/>
<path id="Vector_4" d="M9.33398 16H18.6673" stroke="#7A63EC" stroke-width="2" stroke-linecap="round" stroke-linejoin="round"/>
</g>
</g>
</svg>
