<svg width="20" height="20" viewBox="0 0 20 20" fill="none" xmlns="http://www.w3.org/2000/svg">
<g id="arrange-circle">
<path id="Vector" d="M9.99935 1.66663C5.39935 1.66663 1.66602 5.39996 1.66602 9.99996C1.66602 14.6 5.39935 18.3333 9.99935 18.3333C14.5993 18.3333 18.3327 14.6 18.3327 9.99996C18.3327 5.39996 14.5993 1.66663 9.99935 1.66663ZM9.10768 14.2916C9.10768 14.375 9.09102 14.45 9.05768 14.5333C8.99102 14.6833 8.87435 14.8083 8.71602 14.875C8.64102 14.9083 8.55768 14.925 8.47435 14.925C8.39102 14.925 8.31602 14.9083 8.23268 14.875C8.15768 14.8416 8.09102 14.8 8.03268 14.7416L5.49935 12.2083C5.25768 11.9666 5.25768 11.5666 5.49935 11.325C5.74102 11.0833 6.14102 11.0833 6.38268 11.325L7.84935 12.7916V5.70829C7.84935 5.36663 8.13268 5.08329 8.47435 5.08329C8.81602 5.08329 9.09935 5.36663 9.09935 5.70829V14.2916H9.10768ZM14.491 8.68329C14.366 8.80829 14.2077 8.86663 14.0493 8.86663C13.891 8.86663 13.7327 8.80829 13.6077 8.68329L12.141 7.21663V14.3C12.141 14.6416 11.8577 14.925 11.516 14.925C11.1743 14.925 10.891 14.6416 10.891 14.3V5.70829C10.891 5.62496 10.9077 5.54996 10.941 5.46663C11.0077 5.31663 11.1243 5.19163 11.2827 5.12496C11.4327 5.05829 11.6077 5.05829 11.7577 5.12496C11.8327 5.15829 11.8994 5.19996 11.9577 5.25829L14.491 7.79163C14.7327 8.04163 14.7327 8.43329 14.491 8.68329Z" fill="url(#paint0_linear_1213_4543)"/>
</g>
<defs>
<linearGradient id="paint0_linear_1213_4543" x1="9.99935" y1="1.66663" x2="9.99935" y2="18.3333" gradientUnits="userSpaceOnUse">
<stop stop-color="#48E98A"/>
<stop offset="1" stop-color="#48E98A" stop-opacity="0"/>
</linearGradient>
</defs>
</svg>
