<svg width="20" height="20" viewBox="0 0 20 20" fill="none" xmlns="http://www.w3.org/2000/svg">
<g id="profile-2user">
<path id="Vector" d="M7.49935 1.66663C5.31602 1.66663 3.54102 3.44163 3.54102 5.62496C3.54102 7.76663 5.21602 9.49996 7.39935 9.57496C7.46602 9.56663 7.53268 9.56663 7.58268 9.57496C7.59935 9.57496 7.60768 9.57496 7.62435 9.57496C7.63268 9.57496 7.63268 9.57496 7.64102 9.57496C9.77435 9.49996 11.4493 7.76663 11.4577 5.62496C11.4577 3.44163 9.68268 1.66663 7.49935 1.66663Z" fill="url(#paint0_linear_1213_722)"/>
<path id="Vector_2" d="M11.7328 11.7917C9.40781 10.2417 5.61615 10.2417 3.27448 11.7917C2.21615 12.5 1.63281 13.4583 1.63281 14.4833C1.63281 15.5083 2.21615 16.4583 3.26615 17.1583C4.43281 17.9417 5.96615 18.3333 7.49948 18.3333C9.03281 18.3333 10.5661 17.9417 11.7328 17.1583C12.7828 16.45 13.3661 15.5 13.3661 14.4667C13.3578 13.4417 12.7828 12.4917 11.7328 11.7917Z" fill="url(#paint1_linear_1213_722)"/>
<path id="Vector_3" d="M16.6578 6.11671C16.7911 7.73338 15.6411 9.15004 14.0495 9.34171C14.0411 9.34171 14.0411 9.34171 14.0328 9.34171H14.0078C13.9578 9.34171 13.9078 9.34171 13.8661 9.35837C13.0578 9.40004 12.3161 9.14171 11.7578 8.66671C12.6161 7.90004 13.1078 6.75004 13.0078 5.50004C12.9495 4.82504 12.7161 4.20838 12.3661 3.68338C12.6828 3.52504 13.0495 3.42504 13.4245 3.39171C15.0578 3.25004 16.5161 4.46671 16.6578 6.11671Z" fill="url(#paint2_linear_1213_722)"/>
<path id="Vector_4" d="M18.3249 13.8249C18.2582 14.6333 17.7415 15.3333 16.8749 15.8083C16.0415 16.2666 14.9915 16.4833 13.9499 16.4583C14.5499 15.9166 14.8999 15.2416 14.9665 14.5249C15.0499 13.4916 14.5582 12.4999 13.5749 11.7083C13.0165 11.2666 12.3665 10.9166 11.6582 10.6583C13.4999 10.1249 15.8165 10.4833 17.2415 11.6333C18.0082 12.2499 18.3999 13.0249 18.3249 13.8249Z" fill="url(#paint3_linear_1213_722)"/>
</g>
<defs>
<linearGradient id="paint0_linear_1213_722" x1="7.49935" y1="1.66663" x2="7.49935" y2="9.57496" gradientUnits="userSpaceOnUse">
<stop stop-color="#34C4F7"/>
<stop offset="1" stop-color="#4BCBF9" stop-opacity="0"/>
</linearGradient>
<linearGradient id="paint1_linear_1213_722" x1="7.49948" y1="10.6292" x2="7.49948" y2="18.3333" gradientUnits="userSpaceOnUse">
<stop stop-color="#34C4F7"/>
<stop offset="1" stop-color="#4BCBF9" stop-opacity="0"/>
</linearGradient>
<linearGradient id="paint2_linear_1213_722" x1="14.2131" y1="3.38049" x2="14.2131" y2="9.36274" gradientUnits="userSpaceOnUse">
<stop stop-color="#34C4F7"/>
<stop offset="1" stop-color="#4BCBF9" stop-opacity="0"/>
</linearGradient>
<linearGradient id="paint3_linear_1213_722" x1="14.9961" y1="10.4163" x2="14.9961" y2="16.4602" gradientUnits="userSpaceOnUse">
<stop stop-color="#34C4F7"/>
<stop offset="1" stop-color="#4BCBF9" stop-opacity="0"/>
</linearGradient>
</defs>
</svg>
