<svg width="14" height="14" viewBox="0 0 14 14" fill="none" xmlns="http://www.w3.org/2000/svg">
<g id="Pen (1) 1" clip-path="url(#clip0_4501_6130)">
<g id="Pen">
<g id="Vector">
<path d="M12.6136 1.39095L12.6145 1.39183C13.4108 2.18017 13.7587 2.90999 13.7514 3.6337V3.63623C13.7514 4.33584 13.4035 5.05838 12.6145 5.83942L12.6129 5.84105L11.625 6.83715C11.6251 6.83707 11.6249 6.83724 11.625 6.83715C11.6074 6.8547 11.5892 6.86243 11.5647 6.86278C11.5638 6.86266 11.5621 6.86241 11.5595 6.86192C11.5522 6.86056 11.5439 6.85857 11.5288 6.85481C9.4304 6.25144 7.75047 4.57053 7.14852 2.47161C7.1396 2.44037 7.15151 2.40364 7.16736 2.38778L8.1642 1.39094C8.95759 0.597554 9.69829 0.245487 10.4027 0.250044C11.108 0.254606 11.8396 0.616994 12.6136 1.39095Z" fill="white"/>
<path d="M11.625 6.83715L12.6129 5.84105L12.6145 5.83942C13.4035 5.05838 13.7514 4.33584 13.7514 3.63623V3.6337C13.7587 2.90999 13.4108 2.18017 12.6145 1.39183L12.6136 1.39095C11.8396 0.616994 11.108 0.254606 10.4027 0.250044C9.69829 0.245487 8.95759 0.597554 8.1642 1.39094L7.16736 2.38778C7.15151 2.40364 7.1396 2.44037 7.14852 2.47161M11.625 6.83715C11.6249 6.83724 11.6251 6.83707 11.625 6.83715ZM11.625 6.83715C11.6074 6.8547 11.5892 6.86243 11.5647 6.86278C11.5638 6.86266 11.5621 6.86241 11.5595 6.86192C11.5522 6.86056 11.5439 6.85857 11.5288 6.85481C9.4304 6.25144 7.75047 4.57053 7.14852 2.47161M7.14852 2.47161L6.9082 2.54053" stroke="#F57C1E" stroke-width="0.5"/>
</g>
<g id="Vector_2">
<path d="M7.58316 6.46761L5.9326 4.14504C5.8466 3.96075 5.62341 3.93178 5.50654 4.04864L0.873934 8.68125C0.845896 8.70929 0.808667 8.76221 0.774535 8.83047C0.741653 8.89624 0.720923 8.95765 0.713332 8.99748L0.269169 12.1478L0.268961 12.1493C0.196509 12.6419 0.335667 13.0866 0.618357 13.3776C0.863392 13.6145 1.20963 13.7494 1.59513 13.7494C1.68003 13.7494 1.76514 13.7424 1.85061 13.7281L1.85688 13.7271L5.01678 13.2828C5.06053 13.2751 5.12384 13.2541 5.1885 13.2218C5.25609 13.188 5.30328 13.1527 5.32462 13.1296L5.3314 13.1223L9.9718 8.48213C10.0872 8.36677 10.0521 8.14836 9.88231 8.0748L9.98171 7.84542L9.87303 8.07055C9.63292 7.95464 9.39444 7.83557 9.16252 7.69816L7.58316 6.46761ZM7.58316 6.46761L5.93554 4.15112C6.05175 4.38355 6.17017 4.61215 6.30648 4.84217C6.41209 5.0209 6.53162 5.21011 6.64007 5.34747C6.76219 5.53314 6.89728 5.69483 6.97927 5.79298C6.98445 5.79917 6.98941 5.80512 6.99415 5.81079C7.00256 5.82164 7.01162 5.83343 7.02073 5.84529C7.0375 5.86713 7.05444 5.88919 7.06786 5.90597C7.07961 5.92065 7.09326 5.93718 7.10759 5.95263C7.1139 5.95943 7.12312 5.96911 7.13483 5.97972C7.41103 6.3119 7.71731 6.60975 7.99165 6.84321C8.02533 6.87662 8.05756 6.90666 8.08499 6.93065C8.09958 6.94342 8.11419 6.95569 8.12785 6.96634C8.13242 6.9699 8.14156 6.97702 8.15306 6.98482C8.30552 7.11284 8.47303 7.24685 8.6217 7.34361M7.58316 6.46761L8.6217 7.34361ZM8.6217 7.34361C8.7974 7.46896 8.97529 7.58751 9.16252 7.69816L8.6217 7.34361Z" fill="white"/>
<path d="M7.58316 6.46761L5.9326 4.14504C5.8466 3.96075 5.62341 3.93178 5.50654 4.04864L0.873934 8.68125C0.845896 8.70929 0.808667 8.76221 0.774535 8.83047C0.741653 8.89624 0.720923 8.95765 0.713332 8.99748L0.269169 12.1478L0.268961 12.1493C0.196509 12.6419 0.335667 13.0866 0.618357 13.3776C0.863392 13.6145 1.20963 13.7494 1.59513 13.7494C1.68003 13.7494 1.76514 13.7424 1.85061 13.7281L1.85688 13.7271L5.01678 13.2828C5.06053 13.2751 5.12384 13.2541 5.1885 13.2218C5.25609 13.188 5.30328 13.1527 5.32462 13.1296L5.3314 13.1223L9.9718 8.48213C10.0872 8.36677 10.0521 8.14836 9.88231 8.0748L9.98171 7.84542L9.87303 8.07055C9.63292 7.95464 9.39444 7.83557 9.16252 7.69816M7.58316 6.46761L9.16252 7.69816M7.58316 6.46761L5.93554 4.15112C6.05175 4.38355 6.17017 4.61215 6.30648 4.84217C6.41209 5.0209 6.53162 5.21011 6.64007 5.34747C6.76219 5.53314 6.89728 5.69483 6.97927 5.79298C6.98445 5.79917 6.98941 5.80512 6.99415 5.81079C7.00256 5.82164 7.01162 5.83343 7.02073 5.84529C7.0375 5.86713 7.05444 5.88919 7.06786 5.90597C7.07961 5.92065 7.09326 5.93718 7.10759 5.95263C7.1139 5.95943 7.12312 5.96911 7.13483 5.97972C7.41103 6.3119 7.71731 6.60975 7.99165 6.84321C8.02533 6.87662 8.05756 6.90666 8.08499 6.93065C8.09958 6.94342 8.11419 6.95569 8.12785 6.96634C8.13242 6.9699 8.14156 6.97702 8.15306 6.98482C8.30552 7.11284 8.47303 7.24685 8.6217 7.34361M7.58316 6.46761L8.6217 7.34361M9.16252 7.69816C8.97529 7.58751 8.7974 7.46896 8.6217 7.34361M9.16252 7.69816L8.6217 7.34361" stroke="#F57C1E" stroke-width="0.5"/>
</g>
</g>
</g>
<defs>
<clipPath id="clip0_4501_6130">
<rect width="14" height="14" fill="white"/>
</clipPath>
</defs>
</svg>
