<svg width="20" height="20" viewBox="0 0 20 20" fill="none" xmlns="http://www.w3.org/2000/svg">
<g id="wallet-2">
<path id="Vector" d="M18.3329 9.14163V10.8583C18.3329 11.3166 17.9662 11.6916 17.4995 11.7083H15.8662C14.9662 11.7083 14.1412 11.05 14.0662 10.15C14.0162 9.62496 14.2162 9.13329 14.5662 8.79163C14.8745 8.47496 15.2995 8.29163 15.7662 8.29163H17.4995C17.9662 8.30829 18.3329 8.68329 18.3329 9.14163Z" fill="#F57C1E"/>
<path id="Vector_2" d="M17.0577 12.9583H15.866C14.2827 12.9583 12.9493 11.7666 12.816 10.25C12.741 9.38329 13.0577 8.51663 13.691 7.89996C14.2243 7.34996 14.966 7.04163 15.766 7.04163H17.0577C17.2993 7.04163 17.4993 6.84163 17.4743 6.59996C17.291 4.57496 15.9493 3.19163 13.9577 2.95829C13.7577 2.92496 13.5493 2.91663 13.3327 2.91663H5.83268C5.59935 2.91663 5.37435 2.93329 5.15768 2.96663C3.03268 3.23329 1.66602 4.81663 1.66602 7.08329V12.9166C1.66602 15.2166 3.53268 17.0833 5.83268 17.0833H13.3327C15.666 17.0833 17.2743 15.625 17.4743 13.4C17.4993 13.1583 17.2993 12.9583 17.0577 12.9583ZM10.8327 8.12496H5.83268C5.49102 8.12496 5.20768 7.84163 5.20768 7.49996C5.20768 7.15829 5.49102 6.87496 5.83268 6.87496H10.8327C11.1743 6.87496 11.4577 7.15829 11.4577 7.49996C11.4577 7.84163 11.1743 8.12496 10.8327 8.12496Z" fill="url(#paint0_linear_1213_1770)"/>
</g>
<defs>
<linearGradient id="paint0_linear_1213_1770" x1="5.49902" y1="-0.5" x2="16.999" y2="28.5" gradientUnits="userSpaceOnUse">
<stop stop-color="#F57C1E"/>
<stop offset="1" stop-color="#F57C1E" stop-opacity="0"/>
</linearGradient>
</defs>
</svg>
